<?xml version="1.0" encoding="utf-8"?>
<!-- Generator: Adobe Illustrator 17.0.0, SVG Export Plug-In . SVG Version: 6.00 Build 0)  -->
<!DOCTYPE svg PUBLIC "-//W3C//DTD SVG 1.1//EN" "http://www.w3.org/Graphics/SVG/1.1/DTD/svg11.dtd">
<svg version="1.1" id="Capa_1" xmlns="http://www.w3.org/2000/svg" xmlns:xlink="http://www.w3.org/1999/xlink" x="0px" y="0px"
	 width="67px" height="17px" viewBox="0 0 67 17" enable-background="new 0 0 67 17" xml:space="preserve">
<g>
	<g>
		<path fill="#FFFFFF" d="M11.661,15.184c-0.056-0.451-0.086-0.932-0.086-1.429V7.808c0-0.78-0.183-1.425-0.545-1.915
			c-0.348-0.473-0.802-0.846-1.347-1.111C9.161,4.528,8.576,4.355,7.946,4.269c-1.279-0.177-2.538-0.177-3.774,0.07
			c-0.669,0.134-1.282,0.363-1.82,0.679c-0.555,0.326-1.016,0.764-1.373,1.3c-0.364,0.546-0.573,1.233-0.622,2.04
			C0.348,8.472,0.39,8.585,0.469,8.668C0.547,8.751,0.656,8.799,0.77,8.799h3.14c0.214,0,0.393-0.163,0.414-0.376
			c0.047-0.495,0.2-0.843,0.454-1.034c0.279-0.209,0.686-0.315,1.21-0.315c0.254,0,0.498,0.017,0.722,0.05
			C6.899,7.153,7.064,7.209,7.2,7.29C7.322,7.364,7.418,7.466,7.493,7.6c0.075,0.134,0.113,0.344,0.114,0.625
			C7.618,8.472,7.539,8.57,7.472,8.626c-0.158,0.13-0.387,0.232-0.678,0.305C6.461,9.015,6.072,9.078,5.638,9.119
			C5.173,9.164,4.695,9.225,4.222,9.3C3.737,9.375,3.25,9.479,2.773,9.607c-0.51,0.137-0.969,0.347-1.367,0.623
			c-0.414,0.287-0.754,0.674-1.011,1.149c-0.262,0.479-0.393,1.086-0.393,1.801c0,0.648,0.114,1.22,0.337,1.701
			c0.226,0.485,0.545,0.892,0.949,1.212c0.394,0.313,0.859,0.545,1.383,0.693C3.176,16.928,3.728,17,4.308,17
			c0.745,0,1.485-0.11,2.199-0.327c0.491-0.15,0.944-0.376,1.353-0.675c0.034,0.146,0.075,0.291,0.123,0.432
			c0.056,0.169,0.215,0.283,0.393,0.283h3.183c0.151,0,0.29-0.082,0.363-0.214c0.073-0.132,0.069-0.293-0.011-0.421
			C11.832,15.951,11.725,15.694,11.661,15.184z M7.606,11.391v0.485c0,0.159-0.017,0.38-0.052,0.656
			c-0.03,0.239-0.113,0.482-0.247,0.72C7.18,13.476,6.976,13.675,6.7,13.843c-0.272,0.165-0.682,0.248-1.221,0.248
			c-0.223,0-0.443-0.02-0.653-0.059c-0.184-0.035-0.344-0.094-0.476-0.177c-0.116-0.072-0.205-0.168-0.275-0.298
			c-0.069-0.129-0.105-0.301-0.105-0.511c0-0.223,0.036-0.403,0.106-0.532c0.074-0.138,0.17-0.248,0.29-0.338
			c0.132-0.098,0.293-0.178,0.477-0.238c0.211-0.068,0.428-0.123,0.642-0.163c0.232-0.041,0.476-0.077,0.728-0.107
			c0.261-0.031,0.513-0.07,0.749-0.116C7.19,11.509,7.407,11.454,7.606,11.391z"/>
		<path fill="#FFFFFF" d="M24.357,5.599c-0.353-0.46-0.836-0.824-1.439-1.08c-0.586-0.249-1.336-0.376-2.229-0.376
			c-0.723,0-1.437,0.166-2.124,0.493c-0.376,0.18-0.717,0.418-1.02,0.712v-0.48c0-0.23-0.186-0.415-0.415-0.415h-2.984
			c-0.229,0-0.416,0.185-0.416,0.415v11.429c0,0.229,0.187,0.415,0.416,0.415h3.139c0.23,0,0.416-0.186,0.416-0.415v-5.991
			c0-1.067,0.165-1.827,0.491-2.259c0.302-0.402,0.802-0.597,1.526-0.597c0.605,0,1.004,0.165,1.219,0.504
			c0.251,0.395,0.378,1.03,0.378,1.889v6.456c0,0.229,0.186,0.415,0.416,0.415h3.138c0.23,0,0.416-0.186,0.416-0.415v-7.03
			c0-0.731-0.067-1.412-0.197-2.022C24.947,6.606,24.703,6.053,24.357,5.599z"/>
		<path fill="#FFFFFF" d="M35.13,9.125l4.065-3.961c0.121-0.118,0.158-0.297,0.095-0.454c-0.063-0.156-0.215-0.258-0.384-0.258
			h-3.715c-0.113,0-0.221,0.045-0.299,0.126l-3.243,3.37V0.513c0-0.229-0.186-0.415-0.415-0.415h-3.139
			c-0.229,0-0.415,0.186-0.415,0.415v15.784c0,0.229,0.186,0.415,0.415,0.415h3.139c0.23,0,0.415-0.186,0.415-0.415v-3.759
			l0.717-0.692l2.869,4.667c0.076,0.123,0.209,0.198,0.354,0.198h3.803c0.152,0,0.293-0.084,0.365-0.219
			c0.073-0.135,0.065-0.298-0.02-0.425L35.13,9.125z"/>
		<path fill="#FFFFFF" d="M51.205,5.914c-0.554-0.562-1.231-1.003-2.011-1.311c-0.773-0.306-1.647-0.46-2.596-0.46
			c-0.949,0-1.819,0.155-2.585,0.46c-0.773,0.308-1.446,0.748-1.999,1.31c-0.555,0.561-0.987,1.25-1.288,2.046
			c-0.296,0.788-0.446,1.674-0.446,2.634c0,0.959,0.151,1.841,0.447,2.623c0.3,0.788,0.732,1.472,1.287,2.034
			c0.554,0.563,1.228,1.001,2.002,1.301C44.783,16.849,45.652,17,46.598,17c0.947,0,1.818-0.151,2.592-0.447
			c0.782-0.3,1.46-0.738,2.014-1.301c0.554-0.562,0.987-1.246,1.287-2.034c0.296-0.782,0.447-1.664,0.447-2.623
			c0-0.96-0.151-1.846-0.446-2.634C52.192,7.164,51.759,6.476,51.205,5.914z M47.73,13.572c-0.295,0.168-0.677,0.254-1.132,0.254
			c-0.454,0-0.829-0.085-1.117-0.253c-0.297-0.173-0.528-0.399-0.707-0.689c-0.186-0.302-0.321-0.651-0.399-1.036
			c-0.082-0.406-0.124-0.828-0.124-1.254c0-0.428,0.042-0.854,0.124-1.268c0.079-0.391,0.212-0.738,0.398-1.031
			c0.18-0.286,0.414-0.513,0.714-0.696c0.287-0.172,0.661-0.261,1.112-0.261c0.453,0,0.832,0.088,1.126,0.263
			c0.307,0.182,0.543,0.408,0.722,0.693c0.186,0.294,0.32,0.642,0.398,1.031c0.083,0.414,0.126,0.842,0.126,1.268
			c0,0.426-0.042,0.848-0.125,1.254c-0.078,0.385-0.213,0.734-0.4,1.037C48.267,13.174,48.033,13.398,47.73,13.572z"/>
		<path fill="#FFFFFF" d="M66.551,7.96c-0.299-0.795-0.733-1.484-1.286-2.046c-0.555-0.562-1.232-1.004-2.012-1.311
			c-0.773-0.306-1.647-0.46-2.594-0.46c-0.949,0-1.818,0.155-2.585,0.46c-0.773,0.308-1.446,0.748-2,1.31
			c-0.555,0.562-0.988,1.251-1.288,2.046c-0.295,0.787-0.446,1.673-0.446,2.634c0,0.96,0.151,1.842,0.447,2.623
			c0.299,0.787,0.732,1.472,1.287,2.034c0.554,0.563,1.228,1.001,2.002,1.301C58.843,16.849,59.712,17,60.659,17
			c0.946,0,1.818-0.151,2.592-0.447c0.781-0.3,1.459-0.738,2.015-1.302c0.553-0.561,0.986-1.246,1.286-2.034
			c0.297-0.782,0.447-1.665,0.447-2.623C66.998,9.634,66.848,8.749,66.551,7.96z M61.79,13.571
			c-0.296,0.169-0.677,0.255-1.132,0.255c-0.454,0-0.83-0.085-1.117-0.253c-0.298-0.174-0.529-0.399-0.708-0.689
			c-0.187-0.302-0.321-0.651-0.4-1.036c-0.082-0.405-0.124-0.827-0.124-1.254c0-0.429,0.042-0.855,0.125-1.268
			c0.078-0.391,0.212-0.738,0.397-1.032c0.18-0.285,0.414-0.513,0.715-0.696c0.286-0.172,0.661-0.261,1.112-0.261
			c0.452,0,0.831,0.088,1.126,0.263c0.307,0.182,0.543,0.408,0.723,0.693c0.186,0.295,0.319,0.642,0.398,1.031
			c0.082,0.414,0.125,0.84,0.125,1.268c0,0.426-0.043,0.848-0.125,1.254c-0.078,0.384-0.213,0.734-0.4,1.036
			C62.327,13.174,62.092,13.398,61.79,13.571z"/>
	</g>
	<g>
		<circle fill="#000A8B" cx="36.895" cy="1.651" r="1.652"/>
		<circle fill="#FF6A6F" cx="41.769" cy="1.651" r="1.652"/>
		<circle fill="#FFFFFF" cx="46.644" cy="1.651" r="1.651"/>
	</g>
</g>
</svg>
