<?xml version="1.0" encoding="utf-8"?>
<!-- Generator: Adobe Illustrator 21.1.0, SVG Export Plug-In . SVG Version: 6.00 Build 0)  -->
<svg version="1.1" id="Capa_1" xmlns="http://www.w3.org/2000/svg" xmlns:xlink="http://www.w3.org/1999/xlink" x="0px" y="0px"
	 viewBox="0 0 512 512" style="enable-background:new 0 0 512 512;" xml:space="preserve">
<style type="text/css">
	.st0{fill:#FFFFFF;}
</style>
<path class="st0" d="M492,46H218.3c-11,0-20,9-20,20v90.1H20.2c-11,0-20,9-20,20v187.6c0,11,9,20,20,20h45.3l0,85.3l106.1-85.3
	h122.3c11,0,20-9,20-20v-90.1h26.8l106.1,85.3l0-85.3H492c11,0,20-9,20-20V66C512,55,503,46,492,46z M293.9,363.6
	C293.9,363.6,293.9,363.6,293.9,363.6l-129.4,0l-5.5,4.4l-73.5,59.1l0-43.5l0-20h-20l-45.2,0c0,0,0,0,0,0l0-187.5c0,0,0,0,0,0h178.1
	v77.5c0,11,9,20,20,20h75.5L293.9,363.6z M492,253.6C492,253.6,492,253.6,492,253.6l-45.3,0h-20l0,20l0,43.5L353.2,258l-5.5-4.4h-7
	l-122.3,0c0,0,0,0,0,0l0-187.5c0,0,0,0,0,0H492c0,0,0,0,0,0L492,253.6z"/>
</svg>
