<?xml version="1.0" encoding="utf-8"?>
<!-- Generator: Adobe Illustrator 17.0.0, SVG Export Plug-In . SVG Version: 6.00 Build 0)  -->
<!DOCTYPE svg PUBLIC "-//W3C//DTD SVG 1.1//EN" "http://www.w3.org/Graphics/SVG/1.1/DTD/svg11.dtd">
<svg version="1.1" id="Capa_1" xmlns="http://www.w3.org/2000/svg" xmlns:xlink="http://www.w3.org/1999/xlink" x="0px" y="0px"
	 width="110px" height="96px" viewBox="0 0 110 96" enable-background="new 0 0 110 96" xml:space="preserve">
<g>
	<g>
		<g>
			<path fill="#7F83BE" d="M87.35,36.216H35.626c-2.143,0-3.879,1.736-3.879,3.879v51.724c0,2.143,1.736,3.879,3.879,3.879H87.35
				c2.143,0,3.879-1.736,3.879-3.879V40.095C91.229,37.952,89.493,36.216,87.35,36.216z M86.768,91.237h-50.56v-50.56h50.56V91.237z
				"/>
		</g>
		<g>
			<path fill="#7F83BE" d="M108.984,83.169h-4.208V37.895h4.208c0.311,0,0.591-0.187,0.71-0.475c0.12-0.288,0.054-0.618-0.167-0.838
				l-6.793-6.793c-0.301-0.301-0.788-0.301-1.088,0l-6.793,6.793c-0.221,0.221-0.287,0.551-0.167,0.838
				c0.119,0.288,0.399,0.475,0.71,0.475h4.208v45.274h-4.208c-0.311,0-0.591,0.187-0.71,0.475c-0.12,0.288-0.054,0.618,0.167,0.839
				l6.793,6.793c0.3,0.301,0.788,0.301,1.088,0l6.793-6.793c0.221-0.221,0.287-0.551,0.167-0.839
				C109.575,83.355,109.295,83.169,108.984,83.169z"/>
		</g>
		<g>
			<path fill="#7F83BE" d="M42.963,32.806c0.221,0.221,0.551,0.287,0.839,0.167c0.288-0.119,0.475-0.399,0.475-0.71v-4.208H89.55
				v4.208c0,0.311,0.187,0.591,0.475,0.71c0.288,0.12,0.617,0.054,0.839-0.167l6.793-6.793c0.301-0.301,0.301-0.788,0-1.089
				l-6.793-6.792c-0.221-0.221-0.551-0.287-0.839-0.167c-0.288,0.119-0.475,0.399-0.475,0.71v4.208H44.276v-4.208
				c0-0.311-0.187-0.591-0.475-0.71c-0.288-0.12-0.618-0.054-0.839,0.167l-6.792,6.792c-0.301,0.3-0.301,0.788,0,1.089
				L42.963,32.806z"/>
		</g>
	</g>
	<g>
		<g>
			<path fill="#EA595C" d="M19.247,38.302c-10.477,0-19-8.523-19-19s8.523-19,19-19s19,8.523,19,19S29.724,38.302,19.247,38.302z
				 M19.247,3.302c-8.822,0-16,7.178-16,16s7.178,16,16,16s16-7.178,16-16S28.069,3.302,19.247,3.302z"/>
		</g>
		<g>
			<g>
				<path fill="#7F83BE" d="M24.768,26.905H13.89v-2.666l3.66-3.701c1.046-1.094,1.729-1.84,2.051-2.24s0.545-0.743,0.671-1.03
					s0.19-0.588,0.19-0.902c0-0.39-0.126-0.697-0.379-0.923s-0.608-0.338-1.066-0.338c-0.472,0-0.948,0.135-1.43,0.405
					c-0.482,0.271-1.027,0.668-1.635,1.195l-2.225-2.604c0.772-0.69,1.421-1.184,1.948-1.481c0.526-0.297,1.099-0.524,1.717-0.682
					c0.619-0.157,1.314-0.236,2.086-0.236c0.971,0,1.837,0.171,2.599,0.513c0.762,0.342,1.354,0.829,1.774,1.461
					s0.63,1.341,0.63,2.127c0,0.588-0.073,1.131-0.22,1.63s-0.375,0.989-0.682,1.471s-0.716,0.989-1.225,1.522
					s-1.594,1.545-3.255,3.035v0.103h5.67V26.905z"/>
			</g>
		</g>
	</g>
</g>
</svg>
