<?xml version="1.0" encoding="utf-8"?>
<!-- Generator: Adobe Illustrator 17.0.0, SVG Export Plug-In . SVG Version: 6.00 Build 0)  -->
<!DOCTYPE svg PUBLIC "-//W3C//DTD SVG 1.1//EN" "http://www.w3.org/Graphics/SVG/1.1/DTD/svg11.dtd">
<svg version="1.1" id="Capa_1" xmlns="http://www.w3.org/2000/svg" xmlns:xlink="http://www.w3.org/1999/xlink" x="0px" y="0px"
	 width="77px" height="18.5px" viewBox="0 0 77 18.5" enable-background="new 0 0 77 18.5" xml:space="preserve">
<g>
	<path fill="#FFFFFF" d="M10.683,7.188c-0.537-0.487-1.162-0.873-1.859-1.146C8.126,5.768,7.333,5.63,6.466,5.63
		c-0.926,0-1.784,0.165-2.551,0.492C3.149,6.447,2.481,6.908,1.928,7.486C1.376,8.065,0.942,8.752,0.637,9.53
		c-0.304,0.776-0.458,1.625-0.458,2.526c0,0.899,0.151,1.745,0.447,2.512c0.298,0.775,0.734,1.46,1.293,2.037
		c0.561,0.58,1.249,1.039,2.046,1.365c0.792,0.325,1.691,0.489,2.673,0.489c0.767,0,1.479-0.095,2.117-0.284
		c0.644-0.189,1.217-0.46,1.705-0.806c0.488-0.346,0.906-0.76,1.24-1.229c0.334-0.471,0.581-0.983,0.738-1.523
		c0.039-0.134,0.012-0.278-0.072-0.389c-0.084-0.111-0.216-0.175-0.355-0.175H8.757c-0.166,0-0.319,0.092-0.395,0.238
		c-0.147,0.279-0.346,0.488-0.608,0.637c-0.265,0.151-0.627,0.227-1.072,0.227c-0.692,0-1.209-0.19-1.581-0.582
		c-0.298-0.313-0.514-0.732-0.644-1.249h7.765c0.245,0,0.443-0.195,0.447-0.437c0.015-1.161-0.136-2.236-0.45-3.198
		C11.899,8.709,11.385,7.869,10.683,7.188 M4.486,10.51c0.122-0.454,0.31-0.827,0.562-1.113c0.313-0.355,0.778-0.529,1.419-0.529
		c0.546,0,0.971,0.172,1.298,0.525c0.259,0.279,0.435,0.652,0.528,1.116H4.486z"/>
	<path fill="#FFFFFF" d="M21.339,5.947H19.56V2.782c0-0.243-0.2-0.442-0.447-0.442h-3.296c-0.245,0-0.446,0.199-0.446,0.442v3.166
		h-1.266c-0.246,0-0.446,0.198-0.446,0.442v2.122c0,0.244,0.199,0.442,0.446,0.442h1.266v5.88c0,0.642,0.1,1.185,0.297,1.615
		c0.2,0.442,0.492,0.807,0.865,1.084c0.363,0.272,0.8,0.463,1.298,0.567c0.464,0.098,0.981,0.148,1.537,0.148
		c0.474,0,0.889-0.023,1.234-0.068c0.333-0.043,0.593-0.079,0.781-0.108c0.216-0.032,0.377-0.219,0.377-0.436v-2.483
		c0-0.244-0.199-0.441-0.446-0.441h-0.172c-0.019,0-0.037,0-0.055,0.003c-0.104,0.012-0.222,0.022-0.353,0.029
		c-0.513,0.027-0.848-0.006-1.042-0.136c-0.087-0.059-0.135-0.239-0.135-0.495V8.954h1.779c0.246,0,0.446-0.198,0.446-0.442V6.39
		C21.784,6.146,21.585,5.947,21.339,5.947"/>
	<path fill="#FFFFFF" d="M34.317,7.483c-0.561-0.579-1.249-1.037-2.044-1.363c-0.794-0.326-1.679-0.49-2.632-0.49
		c-0.967,0-1.86,0.164-2.653,0.49c-0.795,0.326-1.486,0.784-2.053,1.361c-0.568,0.58-1.01,1.268-1.316,2.049
		c-0.304,0.776-0.458,1.626-0.458,2.526c0,0.901,0.155,1.75,0.458,2.526c0.306,0.781,0.748,1.47,1.316,2.046
		c0.567,0.579,1.258,1.038,2.053,1.363c0.794,0.326,1.687,0.49,2.653,0.49c0.953,0,1.838-0.164,2.632-0.49
		c0.795-0.325,1.484-0.784,2.044-1.364c0.559-0.578,0.999-1.265,1.304-2.045c0.304-0.776,0.458-1.626,0.458-2.526
		s-0.155-1.748-0.458-2.526C35.315,8.75,34.875,8.062,34.317,7.483 M31.187,14.385c-0.365,0.534-0.877,0.793-1.568,0.793
		c-0.703,0-1.219-0.258-1.576-0.79c-0.391-0.581-0.588-1.365-0.588-2.333c0-0.982,0.198-1.778,0.59-2.366
		c0.357-0.538,0.872-0.798,1.574-0.798c0.69,0,1.202,0.261,1.567,0.8c0.396,0.587,0.598,1.384,0.598,2.364
		C31.784,13.022,31.584,13.805,31.187,14.385"/>
	<path fill="#FFFFFF" d="M51.895,5.629c-0.8,0-1.547,0.185-2.218,0.554c-0.495,0.272-0.95,0.673-1.359,1.196
		c-0.694-1.163-1.77-1.75-3.206-1.75c-0.897,0-1.667,0.203-2.286,0.601c-0.272,0.176-0.523,0.386-0.757,0.631V6.389
		c0-0.244-0.198-0.442-0.444-0.442h-3.232c-0.246,0-0.447,0.198-0.447,0.442v11.289c0,0.244,0.2,0.441,0.447,0.441h3.36
		c0.246,0,0.447-0.197,0.447-0.441v-6.43c0-0.626,0.143-1.113,0.439-1.489c0.274-0.346,0.618-0.508,1.084-0.508
		c0.416,0,0.712,0.115,0.902,0.353c0.213,0.265,0.321,0.662,0.321,1.178v6.897c0,0.244,0.199,0.441,0.446,0.441h3.359
		c0.246,0,0.446-0.197,0.446-0.441v-6.43c0-0.618,0.147-1.12,0.435-1.492c0.265-0.345,0.604-0.505,1.067-0.505
		c0.408,0,0.707,0.118,0.911,0.36c0.222,0.264,0.334,0.658,0.334,1.17v6.897c0,0.244,0.199,0.441,0.447,0.441h3.338
		c0.246,0,0.446-0.197,0.446-0.441v-7.448c0-1.361-0.36-2.474-1.068-3.308C54.376,6.064,53.297,5.629,51.895,5.629"/>
	<path fill="#FFFFFF" d="M75.667,6.909c-0.777-0.848-1.872-1.28-3.251-1.28c-0.876,0-1.652,0.192-2.311,0.569
		c-0.298,0.171-0.571,0.382-0.816,0.63V6.389c0-0.243-0.2-0.441-0.447-0.441h-3.253c-0.246,0-0.446,0.198-0.446,0.441v11.289
		c0,0.244,0.199,0.442,0.446,0.442h3.361c0.246,0,0.446-0.198,0.446-0.442v-6.365c0-0.619,0.162-1.11,0.493-1.497
		c0.313-0.366,0.719-0.544,1.243-0.544c0.495,0,0.849,0.132,1.083,0.406c0.254,0.295,0.376,0.692,0.376,1.21v6.791
		c0,0.244,0.199,0.442,0.446,0.442h3.338c0.247,0,0.447-0.198,0.447-0.442v-7.427C76.821,8.871,76.433,7.747,75.667,6.909"/>
	<path fill="#FF5959" d="M63.025,3.119c-0.112-0.084-0.261-0.109-0.394-0.067L59.04,4.164c-0.187,0.058-0.313,0.229-0.313,0.424
		v1.65c0,0.142,0.067,0.274,0.181,0.358c0.077,0.057,0.169,0.086,0.263,0.086c0.044,0,0.087-0.006,0.131-0.02l3.591-1.112
		c0.185-0.058,0.312-0.229,0.312-0.424v-1.65C63.205,3.336,63.139,3.204,63.025,3.119"/>
	<path fill="#021D99" d="M63.025,0.105c-0.112-0.083-0.26-0.109-0.394-0.066L59.04,1.151c-0.187,0.056-0.313,0.229-0.313,0.424v1.65
		c0,0.142,0.067,0.274,0.181,0.357c0.077,0.056,0.169,0.087,0.263,0.087c0.044,0,0.087-0.007,0.131-0.02l3.591-1.112
		c0.185-0.058,0.312-0.23,0.312-0.424V0.462C63.205,0.323,63.139,0.189,63.025,0.105"/>
	<path fill="#FFFFFF" d="M63.025,6.133c-0.112-0.084-0.26-0.109-0.394-0.066L59.04,7.177c-0.187,0.058-0.313,0.23-0.313,0.424v1.651
		c0,0.141,0.067,0.273,0.181,0.357c0.077,0.057,0.169,0.086,0.263,0.086c0.044,0,0.087-0.007,0.131-0.02l3.591-1.111
		c0.185-0.058,0.312-0.23,0.312-0.424V6.49C63.205,6.349,63.139,6.217,63.025,6.133"/>
	<path fill="#FFFFFF" d="M63.025,9.05c-0.112-0.083-0.26-0.109-0.394-0.066l-3.591,1.112c-0.187,0.058-0.313,0.229-0.313,0.423
		v7.196c0,0.245,0.199,0.444,0.444,0.444h3.591c0.245,0,0.443-0.199,0.443-0.444V9.407C63.205,9.267,63.139,9.134,63.025,9.05"/>
</g>
</svg>
