<?xml version="1.0" encoding="utf-8"?>
<!-- Generator: Adobe Illustrator 17.0.0, SVG Export Plug-In . SVG Version: 6.00 Build 0)  -->
<!DOCTYPE svg PUBLIC "-//W3C//DTD SVG 1.1//EN" "http://www.w3.org/Graphics/SVG/1.1/DTD/svg11.dtd">
<svg version="1.1" id="Capa_1" xmlns="http://www.w3.org/2000/svg" xmlns:xlink="http://www.w3.org/1999/xlink" x="0px" y="0px"
	 width="7.5px" height="13px" viewBox="252.25 249.5 7.5 13" enable-background="new 252.25 249.5 7.5 13" xml:space="preserve">
<g>
	<path fill="#E3B2FF" d="M259.25,249.503l-1.686-0.003c-1.894,0-3.118,1.256-3.118,3.199v1.475h-1.695
		c-0.146,0-0.265,0.119-0.265,0.265v2.137c0,0.146,0.119,0.265,0.265,0.265h1.695v5.393c0,0.146,0.119,0.265,0.265,0.265h2.212
		c0.146,0,0.265-0.119,0.265-0.265v-5.393h1.982c0.146,0,0.265-0.119,0.265-0.265l0.001-2.137c0-0.07-0.028-0.138-0.078-0.187
		c-0.05-0.05-0.117-0.078-0.188-0.078h-1.983v-1.25c0-0.601,0.143-0.906,0.926-0.906l1.136,0c0.146,0,0.265-0.119,0.265-0.265
		v-1.985C259.514,249.622,259.396,249.503,259.25,249.503z"/>
</g>
</svg>
