<?xml version="1.0" encoding="utf-8"?>
<!-- Generator: Adobe Illustrator 17.0.0, SVG Export Plug-In . SVG Version: 6.00 Build 0)  -->
<!DOCTYPE svg PUBLIC "-//W3C//DTD SVG 1.1//EN" "http://www.w3.org/Graphics/SVG/1.1/DTD/svg11.dtd">
<svg version="1.1" id="Capa_1" xmlns="http://www.w3.org/2000/svg" xmlns:xlink="http://www.w3.org/1999/xlink" x="0px" y="0px"
	 width="51.5px" height="18.5px" viewBox="0 0 51.5 18.5" enable-background="new 0 0 51.5 18.5" xml:space="preserve">
<g>
	<path fill="#FFFFFF" d="M3.757,5.742H0.603c-0.231,0-0.417,0.187-0.417,0.418v11.484c0,0.231,0.186,0.418,0.417,0.418h3.154
		c0.231,0,0.418-0.187,0.418-0.418V6.159C4.175,5.929,3.988,5.742,3.757,5.742"/>
	<path fill="#FFFFFF" d="M14.16,10.437l4.085-3.98c0.121-0.118,0.159-0.298,0.095-0.455c-0.064-0.158-0.217-0.26-0.386-0.26h-3.732
		c-0.114,0-0.223,0.047-0.301,0.128l-3.258,3.386V1.783c0-0.231-0.187-0.417-0.418-0.417H7.09c-0.23,0-0.417,0.186-0.417,0.417
		v15.861c0,0.23,0.187,0.418,0.417,0.418h3.154c0.231,0,0.418-0.188,0.418-0.418v-3.777l0.721-0.694l2.883,4.689
		c0.075,0.123,0.21,0.199,0.355,0.199h3.82c0.155,0,0.295-0.084,0.368-0.221c0.073-0.135,0.065-0.3-0.019-0.428L14.16,10.437z"/>
	<path fill="#FFFFFF" d="M30.369,6.894c-0.354-0.463-0.84-0.827-1.446-1.086c-0.59-0.25-1.343-0.377-2.24-0.377
		c-0.727,0-1.445,0.167-2.135,0.495c-0.378,0.181-0.722,0.42-1.025,0.716V6.159c0-0.231-0.187-0.418-0.418-0.418h-2.999
		c-0.23,0-0.417,0.187-0.417,0.418v11.485c0,0.23,0.187,0.417,0.417,0.417h3.154c0.231,0,0.417-0.187,0.417-0.417v-6.02
		c0-1.072,0.167-1.836,0.494-2.271c0.304-0.404,0.805-0.6,1.533-0.6c0.608,0,1.008,0.166,1.225,0.506
		c0.252,0.396,0.379,1.035,0.379,1.898v6.487c0,0.23,0.187,0.417,0.418,0.417h3.154c0.23,0,0.417-0.187,0.417-0.417V10.58
		c0-0.735-0.067-1.418-0.198-2.032C30.962,7.906,30.716,7.35,30.369,6.894"/>
	<path fill="#FFFFFF" d="M37.079,5.742h-3.154c-0.231,0-0.417,0.187-0.417,0.418v11.484c0,0.231,0.186,0.418,0.417,0.418h3.154
		c0.231,0,0.417-0.187,0.417-0.418V6.159C37.496,5.929,37.31,5.742,37.079,5.742"/>
	<path fill="#FFFFFF" d="M50.897,5.742h-3.154c-0.231,0-0.418,0.187-0.418,0.418v6.02c0,1.071-0.166,1.835-0.493,2.27
		c-0.305,0.404-0.806,0.601-1.533,0.601c-0.608,0-1.009-0.166-1.225-0.506c-0.251-0.396-0.379-1.035-0.379-1.898V6.159
		c0-0.231-0.187-0.418-0.418-0.418h-3.154c-0.23,0-0.417,0.187-0.417,0.418v7.064c0,0.737,0.067,1.42,0.198,2.031
		c0.138,0.641,0.383,1.199,0.732,1.654c0.355,0.465,0.843,0.826,1.451,1.077c0.589,0.242,1.34,0.365,2.234,0.365
		c0.725,0,1.442-0.163,2.132-0.483c0.379-0.177,0.723-0.414,1.028-0.708v0.484c0,0.231,0.187,0.418,0.418,0.418h2.999
		c0.231,0,0.417-0.187,0.417-0.418V6.159C51.314,5.929,51.128,5.742,50.897,5.742"/>
	<path fill="#FF5959" d="M46.513,3.327V0.591c0-0.244-0.197-0.441-0.442-0.441h-0.114h-1.139h-0.392
		c-0.244,0-0.442,0.198-0.442,0.442v2.735c0,0.245,0.198,0.442,0.442,0.442h0.392h1.139h0.114
		C46.316,3.769,46.513,3.571,46.513,3.327"/>
	<path fill="#FFFFFF" d="M43.455,4.625V1.889c0-0.244-0.198-0.441-0.442-0.441h-0.114H41.76h-0.392
		c-0.244,0-0.442,0.197-0.442,0.441v2.736c0,0.244,0.198,0.441,0.442,0.441h0.392h1.139h0.114
		C43.257,5.066,43.455,4.869,43.455,4.625"/>
	<path fill="#021D99" d="M49.573,4.625V1.889c0-0.244-0.198-0.441-0.442-0.441h-0.114h-1.139h-0.393
		c-0.243,0-0.441,0.197-0.441,0.441v2.736c0,0.244,0.198,0.441,0.441,0.441h0.393h1.139h0.114
		C49.374,5.066,49.573,4.869,49.573,4.625"/>
</g>
</svg>
