<?xml version="1.0" encoding="utf-8"?>
<!-- Generator: Adobe Illustrator 21.1.0, SVG Export Plug-In . SVG Version: 6.00 Build 0)  -->
<svg version="1.1" id="Capa_1" xmlns="http://www.w3.org/2000/svg" xmlns:xlink="http://www.w3.org/1999/xlink" x="0px" y="0px"
	 viewBox="0 0 512 512" style="enable-background:new 0 0 512 512;" xml:space="preserve">
<style type="text/css">
	.st0{fill:#FFFFFF;}
</style>
<path class="st0" d="M365,51v132.7H147V51H365 M384,32H128v170.7h256V32L384,32z"/>
<path class="st0" d="M109,371v90H19v-90H109 M128,352H0v128h128V352L128,352z"/>
<path class="st0" d="M301.1,371v90h-90v-90H301.1 M320.1,352h-128v128h128V352L320.1,352z"/>
<path class="st0" d="M491.2,371v90h-90v-90H491.2 M510.2,352h-128v128h128V352L510.2,352z"/>
<polygon class="st0" points="457.5,247 53.2,247 53.2,266.3 457.5,266.3 457.5,247 "/>
<polygon class="st0" points="72.5,247 53.2,247 53.2,321.7 72.5,321.7 72.5,247 "/>
<polygon class="st0" points="265.8,247 246.5,247 246.5,321.7 265.8,321.7 265.8,247 "/>
<polygon class="st0" points="457.6,247 438.4,247 438.4,321.7 457.6,321.7 457.6,247 "/>
</svg>
