<?xml version="1.0" encoding="utf-8"?>
<!-- Generator: Adobe Illustrator 17.0.0, SVG Export Plug-In . SVG Version: 6.00 Build 0)  -->
<!DOCTYPE svg PUBLIC "-//W3C//DTD SVG 1.1//EN" "http://www.w3.org/Graphics/SVG/1.1/DTD/svg11.dtd">
<svg version="1.1" id="Capa_1" xmlns="http://www.w3.org/2000/svg" xmlns:xlink="http://www.w3.org/1999/xlink" x="0px" y="0px"
	 width="130px" height="2px" viewBox="0 0 130 2" enable-background="new 0 0 130 2" xml:space="preserve">
<g>
	<g>
		<path fill="#969596" d="M125,2h-5c-0.552,0-1-0.448-1-1s0.448-1,1-1h5c0.552,0,1,0.448,1,1S125.552,2,125,2z M115,2h-5
			c-0.552,0-1-0.448-1-1s0.448-1,1-1h5c0.552,0,1,0.448,1,1S115.552,2,115,2z M105,2h-5c-0.552,0-1-0.448-1-1s0.448-1,1-1h5
			c0.552,0,1,0.448,1,1S105.552,2,105,2z M95,2h-5c-0.552,0-1-0.448-1-1s0.448-1,1-1h5c0.552,0,1,0.448,1,1S95.552,2,95,2z M85,2h-5
			c-0.552,0-1-0.448-1-1s0.448-1,1-1h5c0.552,0,1,0.448,1,1S85.552,2,85,2z M75,2h-5c-0.552,0-1-0.448-1-1s0.448-1,1-1h5
			c0.552,0,1,0.448,1,1S75.552,2,75,2z M65,2h-5c-0.552,0-1-0.448-1-1s0.448-1,1-1h5c0.552,0,1,0.448,1,1S65.552,2,65,2z M55,2h-5
			c-0.552,0-1-0.448-1-1s0.448-1,1-1h5c0.552,0,1,0.448,1,1S55.552,2,55,2z M45,2h-5c-0.552,0-1-0.448-1-1s0.448-1,1-1h5
			c0.552,0,1,0.448,1,1S45.552,2,45,2z M35,2h-5c-0.552,0-1-0.448-1-1s0.448-1,1-1h5c0.552,0,1,0.448,1,1S35.552,2,35,2z M25,2h-5
			c-0.552,0-1-0.448-1-1s0.448-1,1-1h5c0.552,0,1,0.448,1,1S25.552,2,25,2z M15,2h-5C9.448,2,9,1.552,9,1s0.448-1,1-1h5
			c0.552,0,1,0.448,1,1S15.552,2,15,2z M0,0h5c0.552,0,1,0.448,1,1S5.552,2,5,2H0"/>
	</g>
	<g>
		<path fill="#969596" d="M130,2c-0.552,0-1-0.448-1-1s0.448-1,1-1"/>
	</g>
</g>
</svg>
