<?xml version="1.0" encoding="utf-8"?>
<!-- Generator: Adobe Illustrator 17.0.0, SVG Export Plug-In . SVG Version: 6.00 Build 0)  -->
<!DOCTYPE svg PUBLIC "-//W3C//DTD SVG 1.1//EN" "http://www.w3.org/Graphics/SVG/1.1/DTD/svg11.dtd">
<svg version="1.1" id="Capa_1" xmlns="http://www.w3.org/2000/svg" xmlns:xlink="http://www.w3.org/1999/xlink" x="0px" y="0px"
	 width="101px" height="40px" viewBox="0 0 101 40" enable-background="new 0 0 101 40" xml:space="preserve">
<g>
	<g>
		<path fill="#5E0D8B" d="M17.237,17.615c-0.712-0.931-1.617-1.69-2.695-2.253c-1.085-0.567-2.386-0.855-3.867-0.855
			c-1.179,0-2.279,0.239-3.266,0.708c-0.511,0.242-0.978,0.56-1.4,0.949v-0.543c0-0.352-0.287-0.638-0.639-0.638H0.778
			c-0.353,0-0.638,0.286-0.638,0.638v23.74C0.14,39.714,0.426,40,0.778,40h4.83c0.353,0,0.638-0.286,0.638-0.638V32.63
			c0.425,0.371,0.898,0.681,1.413,0.93c1.002,0.483,2.108,0.726,3.287,0.726c1.39,0,2.627-0.275,3.677-0.819
			c1.043-0.539,1.927-1.273,2.628-2.184c0.691-0.898,1.214-1.941,1.552-3.102c0.334-1.141,0.503-2.345,0.503-3.579
			c0-1.299-0.168-2.564-0.5-3.759C18.47,19.624,17.941,18.539,17.237,17.615z M13.201,24.465c0,0.657-0.064,1.313-0.192,1.95
			c-0.12,0.596-0.324,1.123-0.607,1.564c-0.279,0.431-0.632,0.771-1.083,1.039c-0.43,0.256-0.988,0.385-1.663,0.385
			c-0.654,0-1.209-0.13-1.651-0.389c-0.46-0.268-0.818-0.607-1.094-1.036c-0.287-0.443-0.496-0.973-0.628-1.575
			c-0.136-0.632-0.206-1.284-0.206-1.938c0-0.68,0.064-1.347,0.192-1.984c0.12-0.6,0.326-1.134,0.612-1.587
			c0.278-0.441,0.633-0.792,1.087-1.072c0.429-0.264,0.985-0.398,1.655-0.398c0.647,0,1.192,0.134,1.62,0.398
			c0.448,0.277,0.82,0.645,1.106,1.092c0.296,0.465,0.514,1.008,0.646,1.612C13.131,23.16,13.201,23.812,13.201,24.465z"/>
		<path fill="#5E0D8B" d="M38.96,31.494c-0.087-0.693-0.131-1.433-0.131-2.199v-9.149c0-1.201-0.282-2.192-0.839-2.946
			c-0.536-0.728-1.233-1.304-2.072-1.71c-0.805-0.39-1.705-0.655-2.675-0.789c-1.966-0.271-3.904-0.272-5.807,0.108
			c-1.028,0.206-1.97,0.557-2.801,1.046c-0.852,0.501-1.562,1.175-2.111,1.998c-0.56,0.84-0.883,1.897-0.957,3.14
			c-0.011,0.175,0.052,0.348,0.173,0.476c0.121,0.127,0.289,0.201,0.466,0.201h4.829c0.329,0,0.605-0.251,0.636-0.578
			c0.072-0.762,0.308-1.297,0.7-1.59c0.43-0.322,1.055-0.485,1.861-0.485c0.393,0,0.767,0.026,1.111,0.077
			c0.291,0.045,0.545,0.131,0.754,0.256c0.188,0.113,0.336,0.27,0.451,0.477c0.115,0.206,0.176,0.528,0.176,0.96
			c0.017,0.381-0.104,0.531-0.209,0.618c-0.244,0.2-0.595,0.357-1.042,0.468c-0.513,0.128-1.111,0.226-1.777,0.29
			c-0.717,0.069-1.451,0.163-2.18,0.277c-0.745,0.116-1.495,0.276-2.229,0.473c-0.784,0.211-1.49,0.534-2.102,0.959
			c-0.636,0.442-1.161,1.037-1.556,1.767c-0.402,0.737-0.605,1.669-0.605,2.771c0,0.997,0.175,1.877,0.519,2.615
			c0.346,0.746,0.837,1.374,1.458,1.865c0.607,0.48,1.323,0.84,2.128,1.067c0.779,0.218,1.627,0.329,2.52,0.329
			c1.147,0,2.284-0.17,3.382-0.504c0.756-0.23,1.453-0.577,2.082-1.037c0.052,0.223,0.115,0.445,0.188,0.663
			c0.087,0.26,0.332,0.436,0.606,0.436h4.897c0.232,0,0.446-0.125,0.559-0.329c0.112-0.203,0.105-0.451-0.017-0.648
			C39.222,32.673,39.057,32.277,38.96,31.494z M32.722,25.656v0.747c0,0.242-0.027,0.582-0.08,1.009
			c-0.046,0.37-0.175,0.743-0.382,1.11c-0.195,0.344-0.509,0.65-0.931,0.909c-0.418,0.253-1.051,0.382-1.88,0.382
			c-0.343,0-0.68-0.03-1.004-0.09c-0.282-0.053-0.529-0.145-0.732-0.272c-0.178-0.111-0.315-0.261-0.422-0.458
			c-0.107-0.198-0.161-0.463-0.161-0.786c0-0.344,0.054-0.621,0.161-0.819c0.114-0.212,0.261-0.382,0.448-0.521
			c0.203-0.151,0.449-0.273,0.734-0.365c0.325-0.105,0.658-0.19,0.987-0.251c0.358-0.063,0.735-0.118,1.12-0.165
			c0.403-0.047,0.789-0.107,1.152-0.177C32.081,25.84,32.414,25.755,32.722,25.656z"/>
		<path fill="#5E0D8B" d="M54.048,22.172l6.253-6.092c0.186-0.182,0.244-0.458,0.146-0.698c-0.097-0.241-0.332-0.398-0.591-0.398
			h-5.715c-0.174,0-0.34,0.07-0.461,0.195l-4.988,5.185V8.922c0-0.352-0.286-0.638-0.638-0.638h-4.83
			c-0.353,0-0.638,0.286-0.638,0.638v24.284c0,0.353,0.286,0.638,0.638,0.638h4.83c0.352,0,0.638-0.286,0.638-0.638v-5.782
			l1.103-1.064l4.415,7.18c0.116,0.189,0.322,0.304,0.544,0.304h5.85c0.235,0,0.451-0.13,0.562-0.337
			c0.111-0.207,0.1-0.459-0.031-0.655L54.048,22.172z"/>
		<path fill="#5E0D8B" d="M74.42,22.172l6.252-6.092c0.186-0.182,0.244-0.458,0.146-0.698c-0.098-0.241-0.332-0.398-0.591-0.398
			h-5.714c-0.174,0-0.34,0.07-0.461,0.195l-4.988,5.185V8.922c0-0.352-0.287-0.638-0.64-0.638h-4.829
			c-0.353,0-0.639,0.286-0.639,0.638v24.284c0,0.353,0.286,0.638,0.639,0.638h4.829c0.353,0,0.64-0.286,0.64-0.638v-5.782
			l1.103-1.064l4.413,7.18c0.117,0.189,0.323,0.304,0.544,0.304h5.85c0.236,0,0.451-0.13,0.562-0.337
			c0.112-0.207,0.1-0.459-0.03-0.655L74.42,22.172z"/>
		<path fill="#5E0D8B" d="M100.47,21.519c-0.337-1.322-0.892-2.517-1.651-3.554c-0.769-1.049-1.764-1.897-2.958-2.517
			c-1.198-0.624-2.612-0.94-4.206-0.94c-1.42,0-2.735,0.258-3.91,0.767c-1.173,0.507-2.199,1.214-3.047,2.099
			c-0.85,0.885-1.514,1.948-1.974,3.157c-0.456,1.202-0.688,2.514-0.688,3.9c0,1.431,0.226,2.765,0.67,3.963
			c0.446,1.21,1.093,2.266,1.919,3.142c0.832,0.881,1.86,1.569,3.051,2.042c1.181,0.47,2.519,0.709,3.978,0.709
			c2.111,0,3.944-0.491,5.448-1.462c1.526-0.984,2.668-2.621,3.391-4.864c0.062-0.194,0.029-0.407-0.092-0.571
			c-0.12-0.165-0.312-0.264-0.517-0.264h-4.251c-0.284,0-0.534,0.188-0.613,0.459c-0.117,0.398-0.468,0.803-1.044,1.203
			c-0.597,0.415-1.302,0.617-2.153,0.617c-1.183,0-2.085-0.294-2.685-0.875c-0.499-0.483-0.815-1.256-0.943-2.304h11.995
			c0.337,0,0.615-0.261,0.638-0.597C100.923,24.207,100.802,22.824,100.47,21.519z M91.519,19.424c0.986,0,1.714,0.25,2.163,0.743
			c0.374,0.41,0.667,0.987,0.876,1.72h-6.307c0.025-0.109,0.055-0.223,0.089-0.34c0.1-0.347,0.279-0.685,0.533-1.004
			c0.247-0.312,0.589-0.58,1.014-0.798C90.305,19.532,90.854,19.424,91.519,19.424z"/>
	</g>
	<g>
		<path fill="#FF5959" d="M59.674,0.098c-2.367-0.13-3.556-0.13-5.924,0c-0.405,0.023-0.711,0.347-0.686,0.719
			c0.005,0.07,0.007,0.107,0.012,0.177c0.048,0.696,0.072,1.043,0.12,1.739c0.017,0.239,0.025,0.359,0.042,0.6
			c0.026,0.372,0.35,0.652,0.726,0.632c2.196-0.122,3.301-0.122,5.498,0c0.375,0.02,0.698-0.259,0.724-0.632
			c0.016-0.241,0.025-0.36,0.042-0.6c0.047-0.696,0.071-1.043,0.119-1.739c0.005-0.07,0.007-0.107,0.012-0.177
			C60.385,0.444,60.078,0.121,59.674,0.098z"/>
		<path fill="#000A8B" d="M67.695,1.153c-2.332-0.488-3.511-0.667-5.873-0.893c-0.403-0.038-0.756,0.238-0.786,0.61
			c-0.006,0.07-0.009,0.105-0.014,0.175c-0.057,0.695-0.085,1.041-0.143,1.737c-0.019,0.24-0.029,0.358-0.048,0.598
			c-0.03,0.372,0.247,0.7,0.622,0.736c2.193,0.209,3.285,0.374,5.451,0.827c0.369,0.077,0.734-0.151,0.815-0.514
			c0.052-0.235,0.078-0.352,0.13-0.587c0.153-0.68,0.229-1.021,0.382-1.702c0.015-0.068,0.022-0.101,0.038-0.17
			C68.35,1.604,68.094,1.236,67.695,1.153z"/>
		<path fill="#5E0D8B" d="M51.602,0.26c-2.362,0.226-3.54,0.405-5.873,0.893c-0.398,0.083-0.654,0.451-0.573,0.814
			c0.016,0.069,0.024,0.102,0.039,0.17c0.153,0.681,0.229,1.022,0.382,1.702c0.051,0.235,0.077,0.352,0.13,0.587
			c0.082,0.363,0.446,0.592,0.816,0.514c2.165-0.453,3.259-0.618,5.451-0.828c0.374-0.035,0.651-0.362,0.621-0.734
			c-0.019-0.24-0.029-0.359-0.049-0.599c-0.057-0.695-0.086-1.042-0.143-1.736c-0.006-0.07-0.009-0.105-0.014-0.175
			C52.357,0.497,52.005,0.222,51.602,0.26z"/>
	</g>
</g>
</svg>
