<?xml version="1.0" encoding="utf-8"?>
<!-- Generator: Adobe Illustrator 17.0.0, SVG Export Plug-In . SVG Version: 6.00 Build 0)  -->
<!DOCTYPE svg PUBLIC "-//W3C//DTD SVG 1.1//EN" "http://www.w3.org/Graphics/SVG/1.1/DTD/svg11.dtd">
<svg version="1.1" id="Capa_1" xmlns="http://www.w3.org/2000/svg" xmlns:xlink="http://www.w3.org/1999/xlink" x="0px" y="0px"
	 width="81px" height="102px" viewBox="0 0 81 102" enable-background="new 0 0 81 102" xml:space="preserve">
<g>
	<g>
		<g>
			<g>
				<path fill="#7F83BE" d="M77.777,43.944L59.689,28.105c-0.959-0.83-2.176-1.291-3.448-1.291s-2.489,0.461-3.448,1.291
					l-6.417,5.624c-0.369-1.364-0.572-2.803-0.572-4.296c0-3.614,1.143-7.007,3.208-9.533c1.955-2.397,4.536-3.725,7.228-3.725
					c5.753,0,10.436,5.937,10.436,13.258c0,1.217,0.996,2.213,2.213,2.213l0,0c1.217,0,2.213-0.996,2.213-2.213
					c0-9.754-6.675-17.683-14.862-17.683c-4.057,0-7.837,1.899-10.658,5.347c-2.711,3.319-4.204,7.689-4.204,12.336
					c0,2.618,0.479,5.144,1.383,7.468l-8.039,7.044c-2.01,1.77-3.171,4.315-3.171,6.988V90.65c0,6.122,4.978,11.1,11.1,11.1h27.197
					c6.122,0,11.1-4.978,11.1-11.1V50.933C80.949,48.259,79.787,45.714,77.777,43.944z M76.523,90.65
					c0,3.688-2.987,6.675-6.675,6.675H42.633c-3.688,0-6.675-2.987-6.675-6.675V50.933c0-1.401,0.608-2.747,1.659-3.669l7.283-6.38
					c0.221,0.295,0.443,0.59,0.664,0.885c2.821,3.448,6.601,5.347,10.658,5.347l0,0c1.217,0,2.213-0.996,2.213-2.213
					s-0.996-2.213-2.213-2.213c-2.711,0-5.274-1.328-7.228-3.725c-0.258-0.332-0.516-0.664-0.756-1.014l7.449-6.527
					c0.184-0.166,0.387-0.203,0.535-0.203c0.148,0,0.35,0.037,0.535,0.203l18.089,15.839c1.051,0.922,1.66,2.268,1.66,3.669V90.65
					H76.523z"/>
			</g>
			<g>
				<path fill="#7F83BE" d="M58.675,67.712h-4.868c-1.715,0-3.116-1.401-3.116-3.116c0-1.715,1.401-3.116,3.116-3.116h8.574
					c1.217,0,2.213-0.996,2.213-2.213s-0.996-2.213-2.213-2.213h-3.927v-2.876c0-1.217-0.996-2.213-2.213-2.213
					s-2.213,0.996-2.213,2.213v2.876h-0.221c-4.167,0-7.541,3.393-7.541,7.541c0,4.167,3.393,7.541,7.541,7.541h4.868
					c1.715,0,3.116,1.401,3.116,3.116c0,1.715-1.401,3.116-3.116,3.116h-8.74c-1.217,0-2.213,0.996-2.213,2.213
					s0.996,2.213,2.213,2.213h4.093v2.932c0,1.217,0.996,2.213,2.213,2.213s2.213-0.996,2.213-2.213v-2.932h0.258
					c0.018,0,0.037,0,0.055,0c4.112-0.055,7.449-3.411,7.449-7.541C66.216,71.086,62.823,67.712,58.675,67.712z"/>
			</g>
		</g>
	</g>
	<g>
		<g>
			<path fill="#EA595C" d="M19.051,38.25c-10.477,0-19-8.523-19-19s8.523-19,19-19s19,8.523,19,19S29.528,38.25,19.051,38.25z
				 M19.051,3.25c-8.822,0-16,7.178-16,16s7.178,16,16,16s16-7.178,16-16S27.874,3.25,19.051,3.25z"/>
		</g>
		<g>
			<g>
				<path fill="#7F83BE" d="M23.972,15.011c0,0.93-0.284,1.728-0.851,2.394s-1.388,1.15-2.46,1.451v0.062
					c2.501,0.314,3.752,1.497,3.752,3.548c0,1.394-0.552,2.491-1.656,3.291s-2.637,1.2-4.599,1.2c-0.807,0-1.553-0.058-2.24-0.174
					s-1.43-0.328-2.23-0.636v-3.363c0.656,0.335,1.324,0.583,2.004,0.743s1.307,0.241,1.881,0.241c0.889,0,1.536-0.125,1.943-0.374
					s0.61-0.641,0.61-1.174c0-0.41-0.106-0.727-0.318-0.949c-0.212-0.222-0.554-0.39-1.025-0.502s-1.087-0.169-1.846-0.169h-0.922
					v-3.045h0.943c2.058,0,3.086-0.526,3.086-1.579c0-0.396-0.152-0.69-0.457-0.882s-0.712-0.287-1.225-0.287
					c-0.957,0-1.948,0.321-2.973,0.964l-1.682-2.707c0.793-0.547,1.604-0.937,2.435-1.169c0.831-0.232,1.782-0.349,2.855-0.349
					c1.552,0,2.769,0.308,3.65,0.923C23.532,13.083,23.972,13.931,23.972,15.011z"/>
			</g>
		</g>
	</g>
</g>
</svg>
