<?xml version="1.0" encoding="utf-8"?>
<!-- Generator: Adobe Illustrator 17.0.0, SVG Export Plug-In . SVG Version: 6.00 Build 0)  -->
<!DOCTYPE svg PUBLIC "-//W3C//DTD SVG 1.1//EN" "http://www.w3.org/Graphics/SVG/1.1/DTD/svg11.dtd">
<svg version="1.1" id="Capa_1" xmlns="http://www.w3.org/2000/svg" xmlns:xlink="http://www.w3.org/1999/xlink" x="0px" y="0px"
	 width="100px" height="100px" viewBox="206 206 100 100" enable-background="new 206 206 100 100" xml:space="preserve">
<g>
	<g>
		<path fill="#7F84BF" d="M293.874,224.208h-18.363l4.329-15.421c0.103-0.661,0.082-2.787-2.134-2.787h-43.188
			c-0.862,0-2.688,0.846-2.134,2.787l4.329,15.421h-18.383L206,306h100L293.874,224.208z M274.712,210.294l-3.816,13.914h-29.791
			l-3.837-13.914C237.268,210.294,274.712,210.294,274.712,210.294z M221.962,228.481h68.096l11.059,73.431h-90.234L221.962,228.481
			z"/>
		<polygon fill="#7F84BF" points="254.297,249.889 248.552,249.889 236.427,262.957 236.427,249.889 232.159,249.889 
			232.159,276.665 236.632,276.665 236.632,269.171 240.469,264.877 249.188,276.438 254.502,276.438 243.649,261.45 		"/>
		<path fill="#7F84BF" d="M276.845,263.618v7.267c-1.703,1.073-3.837,1.713-6.381,1.713c-2.544,0-4.678-0.846-6.381-2.56
			c-1.703-1.713-2.544-4.067-2.544-6.854s0.841-5.14,2.77-6.854c1.908-1.713,4.042-2.56,6.812-2.56c1.272,0,2.544,0,3.611,0.434
			c1.067,0.434,2.134,1.074,3.201,1.92l2.544-3.427c-2.544-2.353-5.745-3.427-9.581-3.427c-3.837,0-7.017,1.507-9.787,4.067
			s-4.042,5.78-4.042,9.847s1.498,7.287,4.042,9.847s5.95,3.86,9.787,3.86c4.473,0,8.084-1.28,10.648-4.067v-9.207h-4.473H276.845z"
			/>
	</g>
</g>
</svg>
