<?xml version="1.0" encoding="utf-8"?>
<!-- Generator: Adobe Illustrator 17.0.0, SVG Export Plug-In . SVG Version: 6.00 Build 0)  -->
<!DOCTYPE svg PUBLIC "-//W3C//DTD SVG 1.1//EN" "http://www.w3.org/Graphics/SVG/1.1/DTD/svg11.dtd">
<svg version="1.1" id="Capa_1" xmlns="http://www.w3.org/2000/svg" xmlns:xlink="http://www.w3.org/1999/xlink" x="0px" y="0px"
	 width="30px" height="30px" viewBox="9 3 30 30" enable-background="new 9 3 30 30" xml:space="preserve">
<g>
	<g>
		<path fill="#FFFFFF" d="M24,33C15.729,33,9,26.271,9,18C9,9.729,15.729,3,24,3s15,6.729,15,15C39,26.271,32.271,33,24,33z
			 M24,4.815c-7.27,0-13.185,5.915-13.185,13.185S16.729,31.185,24,31.185S37.186,25.27,37.186,18S31.27,4.815,24,4.815z"/>
		<rect x="17.174" y="17.093" fill="#FFFFFF" width="13.653" height="1.814"/>
		<rect x="17.174" y="12.266" fill="#FFFFFF" width="13.653" height="1.814"/>
		<rect x="17.173" y="21.919" fill="#FFFFFF" width="13.653" height="1.814"/>
	</g>
</g>
</svg>
