<?xml version="1.0" encoding="utf-8"?>
<!-- Generator: Adobe Illustrator 17.0.0, SVG Export Plug-In . SVG Version: 6.00 Build 0)  -->
<!DOCTYPE svg PUBLIC "-//W3C//DTD SVG 1.1//EN" "http://www.w3.org/Graphics/SVG/1.1/DTD/svg11.dtd">
<svg version="1.1" id="Capa_1" xmlns="http://www.w3.org/2000/svg" xmlns:xlink="http://www.w3.org/1999/xlink" x="0px" y="0px"
	 width="100px" height="100px" viewBox="206 206 100 100" enable-background="new 206 206 100 100" xml:space="preserve">
<g>
	<path fill="#7F84BF" d="M291.655,252.989c-7.062-10.28-15.915-17.109-25.585-19.907v-8.335h20.333c5.11,0,9.634-3.507,11.002-8.529
		l1.842-6.759c0.224-0.822,0.058-1.703-0.448-2.382c-0.506-0.679-1.294-1.078-2.13-1.078H215.33c-0.836,0-1.624,0.399-2.13,1.078
		c-0.506,0.679-0.671,1.56-0.448,2.382l1.842,6.759c1.369,5.022,5.893,8.529,11.002,8.529h20.333v8.335
		c-9.67,2.798-18.523,9.627-25.585,19.907C211.094,266.456,206,284.314,206,303.271c0,1.507,1.198,2.729,2.675,2.729h94.65
		c1.477,0,2.675-1.222,2.675-2.729C306,284.314,300.905,266.456,291.655,252.989z M219.749,214.757l-0.899-3.299h74.301
		l-0.899,3.299c-0.727,2.669-3.132,4.533-5.848,4.533h-60.806C222.881,219.29,220.477,217.426,219.749,214.757z M251.28,224.747
		h9.44v7.214c-1.559-0.206-3.133-0.314-4.72-0.314s-3.161,0.108-4.72,0.314V224.747z M211.387,300.543
		c0.968-35.226,20.609-63.438,44.613-63.438c24.004,0,43.645,28.212,44.613,63.438H211.387L211.387,300.543z"/>
	<path fill="#7F84BF" d="M256,242.208c-14.387,0-26.091,11.94-26.091,26.616c0,14.676,11.704,26.616,26.091,26.616
		s26.091-11.94,26.091-26.616C282.091,254.148,270.387,242.208,256,242.208L256,242.208z M256,289.982
		c-11.437,0-20.741-9.492-20.741-21.158s9.304-21.158,20.741-21.158c11.437,0,20.741,9.492,20.741,21.158
		C276.741,280.491,267.437,289.982,256,289.982z"/>
	<path fill="#7F84BF" d="M256,251.02c-1.477,0-2.675,1.222-2.675,2.729v15.075c0,1.507,1.198,2.729,2.675,2.729
		c1.477,0,2.675-1.222,2.675-2.729v-15.075C258.675,252.242,257.477,251.02,256,251.02z"/>
</g>
</svg>
