<?xml version="1.0" encoding="utf-8"?>
<!-- Generator: Adobe Illustrator 21.1.0, SVG Export Plug-In . SVG Version: 6.00 Build 0)  -->
<svg version="1.1" id="Capa_1" xmlns="http://www.w3.org/2000/svg" xmlns:xlink="http://www.w3.org/1999/xlink" x="0px" y="0px"
	 viewBox="0 0 45 45" style="enable-background:new 0 0 45 45;" xml:space="preserve">
<style type="text/css">
	.st0{fill:#FFFFFF;}
</style>
<g>
	<g>
		<path class="st0" d="M32.2,13.1c-0.5-0.5-1.4-0.5-1.9,0l-7.8,7.8l-7.8-7.8c-0.5-0.5-1.4-0.5-1.9,0s-0.5,1.4,0,1.9l7.7,7.7
			l-7.7,7.7c-0.5,0.5-0.5,1.4,0,1.9c0.3,0.3,0.6,0.4,1,0.4s0.7-0.1,0.9-0.4l7.8-7.8l7.8,7.8c0.3,0.3,0.6,0.4,0.9,0.4
			c0.3,0,0.7-0.1,1-0.4c0.5-0.5,0.5-1.4,0-1.9l-7.7-7.7l7.7-7.7C32.7,14.5,32.7,13.6,32.2,13.1L32.2,13.1z"/>
		<path class="st0" d="M22.5,1C10.6,1,1,10.6,1,22.5C1,34.4,10.6,44,22.5,44C34.4,44,44,34.4,44,22.5C44,10.6,34.4,1,22.5,1z
			 M22.5,41.3c-10.4,0-18.8-8.4-18.8-18.8c0-10.4,8.4-18.8,18.8-18.8c10.4,0,18.8,8.4,18.8,18.8C41.3,32.9,32.9,41.3,22.5,41.3z"/>
	</g>
</g>
</svg>
