<?xml version="1.0" encoding="utf-8"?>
<!-- Generator: Adobe Illustrator 21.1.0, SVG Export Plug-In . SVG Version: 6.00 Build 0)  -->
<svg version="1.1" id="Capa_1" xmlns="http://www.w3.org/2000/svg" xmlns:xlink="http://www.w3.org/1999/xlink" x="0px" y="0px"
	 viewBox="0 0 40 40" style="enable-background:new 0 0 40 40;" xml:space="preserve">
<style type="text/css">
	.st0{fill:#FFFFFF;}
</style>
<g>
	<g>
		<path class="st0" d="M20,0.3C9.2,0.3,0.3,9.1,0.3,20c0,10.9,8.8,19.7,19.7,19.7c10.8,0,19.7-8.8,19.7-19.7
			C39.7,9.2,30.8,0.3,20,0.3z M20,36.9c-9.3,0-16.9-7.6-16.9-16.9S10.7,3.1,20,3.1S36.9,10.7,36.9,20S29.3,36.9,20,36.9z"/>
		<path class="st0" d="M24.5,10.2c-0.3-0.3-0.6-0.4-1-0.4c-0.3,0-0.7,0.1-1,0.4l-8.9,8.9c-0.3,0.3-0.4,0.6-0.4,1
			c0,0.4,0.1,0.7,0.4,1l8.9,8.9c0.5,0.5,1.4,0.5,2,0c0.5-0.5,0.5-1.4,0-2l-8-8l8-8C25.1,11.6,25.1,10.7,24.5,10.2L24.5,10.2z"/>
	</g>
</g>
</svg>
