<?xml version="1.0" encoding="utf-8"?>
<!-- Generator: Adobe Illustrator 17.0.0, SVG Export Plug-In . SVG Version: 6.00 Build 0)  -->
<!DOCTYPE svg PUBLIC "-//W3C//DTD SVG 1.1//EN" "http://www.w3.org/Graphics/SVG/1.1/DTD/svg11.dtd">
<svg version="1.1" id="Capa_1" xmlns="http://www.w3.org/2000/svg" xmlns:xlink="http://www.w3.org/1999/xlink" x="0px" y="0px"
	 width="16px" height="16px" viewBox="0 0 16 16" enable-background="new 0 0 16 16" xml:space="preserve">
<path fill="#FFFFFF" d="M8.138,0C3.796,0,0.276,3.52,0.276,7.862c0,1.466,0.402,2.836,1.1,4.01L0,16l4.48-1.179
	c1.093,0.576,2.337,0.903,3.658,0.903c4.342,0,7.862-3.52,7.862-7.862S12.48,0,8.138,0z M13.02,11.361l-0.485,0.485
	c-1.538,1.54-3.275,0.782-4.814-0.757L6.316,9.684L4.911,8.278C3.372,6.74,2.614,5.003,4.153,3.465l0.485-0.486
	C4.871,2.746,5.23,2.692,5.521,2.847C6.208,3.21,6.992,4.549,6.992,4.549C7.164,4.852,7.184,5.216,6.876,5.39
	c0,0-0.522,0.434-0.597,0.545C5.937,6.441,5.951,6.908,6.423,7.381l1.098,1.098l1.098,1.098c0.473,0.473,0.94,0.486,1.447,0.144
	c0.111-0.075,0.545-0.597,0.545-0.597c0.172-0.308,0.538-0.288,0.841-0.116c0,0,1.339,0.785,1.702,1.471
	C13.308,10.77,13.254,11.129,13.02,11.361z"/>
</svg>
