<?xml version="1.0" encoding="utf-8"?>
<!-- Generator: Adobe Illustrator 17.0.0, SVG Export Plug-In . SVG Version: 6.00 Build 0)  -->
<!DOCTYPE svg PUBLIC "-//W3C//DTD SVG 1.1//EN" "http://www.w3.org/Graphics/SVG/1.1/DTD/svg11.dtd">
<svg version="1.1" id="Layer_1" xmlns="http://www.w3.org/2000/svg" xmlns:xlink="http://www.w3.org/1999/xlink" x="0px" y="0px"
	 width="100px" height="100px" viewBox="206 206 100 100" enable-background="new 206 206 100 100" xml:space="preserve">
<g>
	<g>
		<g>
			<path fill="#7F84BF" d="M256,231.61c7.061,0,12.805-5.744,12.805-12.805c0-7.061-5.744-12.805-12.805-12.805
				s-12.805,5.744-12.805,12.805C243.195,225.866,248.939,231.61,256,231.61z M256,210.878c4.371,0,7.927,3.556,7.927,7.927
				c0,4.371-3.556,7.927-7.927,7.927c-4.371,0-7.927-3.556-7.927-7.927C248.073,214.434,251.629,210.878,256,210.878z"/>
			<path fill="#7F84BF" d="M238.927,264.537h34.146c1.347,0,2.439-1.092,2.439-2.439V256c0-10.759-8.753-19.512-19.512-19.512
				c-10.759,0-19.512,8.753-19.512,19.512v6.097C236.488,263.445,237.58,264.537,238.927,264.537z M241.366,256
				c0-8.069,6.565-14.634,14.634-14.634s14.634,6.565,14.634,14.634v3.659h-29.268V256z"/>
			<path fill="#7F84BF" d="M303.561,269.415h-95.122c-1.347,0-2.439,1.092-2.439,2.439v31.707c0,1.347,1.092,2.439,2.439,2.439
				h95.122c1.347,0,2.439-1.092,2.439-2.439v-31.707C306,270.507,304.908,269.415,303.561,269.415z M301.122,301.122h-90.244
				v-26.829h90.244L301.122,301.122L301.122,301.122z"/>
			<path fill="#7F84BF" d="M238.89,292.585c0.452,0.782,1.271,1.22,2.115,1.22c0.414,0,0.833-0.105,1.217-0.327l2.678-1.546v3.093
				c0,1.347,1.092,2.439,2.439,2.439s2.439-1.092,2.439-2.439v-3.093l2.678,1.546c0.384,0.222,0.803,0.327,1.217,0.327
				c0.843,0,1.663-0.437,2.115-1.22c0.674-1.167,0.274-2.658-0.893-3.332l-2.678-1.546l2.678-1.546
				c1.167-0.673,1.566-2.165,0.893-3.332c-0.673-1.166-2.165-1.566-3.332-0.893l-2.678,1.546v-3.093
				c0-1.347-1.092-2.439-2.439-2.439s-2.439,1.092-2.439,2.439v3.092l-2.678-1.546c-1.167-0.673-2.658-0.274-3.332,0.893
				c-0.674,1.167-0.274,2.658,0.893,3.332l2.678,1.546l-2.678,1.546C238.616,289.927,238.216,291.419,238.89,292.585z"/>
			<path fill="#7F84BF" d="M261.32,292.585c0.452,0.782,1.271,1.22,2.115,1.22c0.414,0,0.833-0.105,1.217-0.327l2.678-1.546v3.093
				c0,1.347,1.092,2.439,2.439,2.439c1.347,0,2.439-1.092,2.439-2.439v-3.093l2.678,1.546c0.384,0.222,0.803,0.327,1.217,0.327
				c0.843,0,1.663-0.437,2.115-1.22c0.674-1.167,0.274-2.658-0.893-3.332l-2.678-1.546l2.678-1.546
				c1.167-0.673,1.566-2.165,0.893-3.332c-0.673-1.167-2.165-1.566-3.332-0.893l-2.678,1.546v-3.093
				c0-1.347-1.092-2.439-2.439-2.439c-1.347,0-2.439,1.092-2.439,2.439v3.093l-2.678-1.546c-1.167-0.673-2.658-0.274-3.332,0.893
				c-0.674,1.167-0.274,2.658,0.893,3.332l2.678,1.546l-2.678,1.546C261.046,289.927,260.646,291.419,261.32,292.585z"/>
			<path fill="#7F84BF" d="M216.46,292.585c0.452,0.782,1.271,1.22,2.115,1.22c0.414,0,0.833-0.105,1.217-0.327l2.678-1.546v3.093
				c0,1.347,1.092,2.439,2.439,2.439s2.439-1.092,2.439-2.439v-3.093l2.678,1.546c0.384,0.222,0.803,0.327,1.217,0.327
				c0.843,0,1.663-0.437,2.115-1.22c0.674-1.167,0.274-2.658-0.893-3.332l-2.678-1.546l2.678-1.546
				c1.167-0.673,1.566-2.165,0.893-3.332c-0.673-1.167-2.165-1.566-3.332-0.893l-2.678,1.546v-3.093
				c0-1.347-1.092-2.439-2.439-2.439s-2.439,1.092-2.439,2.439v3.093l-2.678-1.546c-1.167-0.673-2.658-0.274-3.332,0.893
				c-0.674,1.167-0.274,2.658,0.893,3.332l2.678,1.546l-2.678,1.546C216.186,289.927,215.787,291.419,216.46,292.585z"/>
			<path fill="#7F84BF" d="M284.78,297.463h10.122c1.347,0,2.439-1.092,2.439-2.439s-1.092-2.439-2.439-2.439H284.78
				c-1.347,0-2.439,1.092-2.439,2.439S283.434,297.463,284.78,297.463z"/>
		</g>
	</g>
</g>
</svg>
