<?xml version="1.0" encoding="utf-8"?>
<!-- Generator: Adobe Illustrator 17.0.0, SVG Export Plug-In . SVG Version: 6.00 Build 0)  -->
<!DOCTYPE svg PUBLIC "-//W3C//DTD SVG 1.1//EN" "http://www.w3.org/Graphics/SVG/1.1/DTD/svg11.dtd">
<svg version="1.1" id="Capa_1" xmlns="http://www.w3.org/2000/svg" xmlns:xlink="http://www.w3.org/1999/xlink" x="0px" y="0px"
	 width="16px" height="13.5px" viewBox="0 0 16 13.5" enable-background="new 0 0 16 13.5" xml:space="preserve">
<path fill="#FFFFFF" d="M15.747,1.644c-0.356,0.158-0.725,0.282-1.103,0.372c0.417-0.396,0.731-0.892,0.908-1.446l0,0
	c0.05-0.158-0.121-0.294-0.263-0.21l0,0c-0.527,0.313-1.094,0.546-1.686,0.697c-0.034,0.009-0.07,0.014-0.106,0.014
	c-0.108,0-0.213-0.041-0.295-0.113c-0.63-0.555-1.441-0.862-2.282-0.862c-0.364,0-0.732,0.057-1.093,0.169
	C8.708,0.61,7.845,1.532,7.574,2.67C7.471,3.1,7.444,3.527,7.492,3.943C7.497,3.99,7.474,4.024,7.46,4.039
	C7.435,4.067,7.401,4.082,7.365,4.082c-0.004,0-0.009,0-0.012,0C4.905,3.855,2.696,2.675,1.136,0.76l0,0
	C1.056,0.663,0.903,0.674,0.84,0.784l0,0C0.535,1.308,0.373,1.907,0.373,2.518c0,0.935,0.375,1.817,1.028,2.459
	C1.127,4.912,0.861,4.81,0.614,4.672l0,0c-0.118-0.065-0.266,0.02-0.267,0.156l0,0C0.33,6.216,1.143,7.453,2.362,8.01
	c-0.025,0-0.049,0.001-0.074,0.001c-0.193,0-0.389-0.018-0.581-0.055l0,0C1.571,7.93,1.459,8.058,1.501,8.187l0,0
	c0.395,1.236,1.459,2.145,2.73,2.352c-1.056,0.709-2.286,1.083-3.566,1.083H0.267c-0.123,0-0.226,0.08-0.258,0.199
	c-0.031,0.117,0.026,0.241,0.13,0.302c1.443,0.839,3.087,1.283,4.757,1.283c1.462,0,2.83-0.29,4.065-0.863
	c1.132-0.524,2.133-1.275,2.975-2.229c0.784-0.889,1.397-1.915,1.822-3.051c0.405-1.082,0.619-2.236,0.619-3.339V3.872
	c0-0.177,0.08-0.343,0.219-0.457c0.53-0.431,0.992-0.937,1.371-1.505l0,0C16.07,1.76,15.912,1.571,15.747,1.644L15.747,1.644z"/>
</svg>
