<?xml version="1.0" encoding="utf-8"?>
<!-- Generator: Adobe Illustrator 17.0.0, SVG Export Plug-In . SVG Version: 6.00 Build 0)  -->
<!DOCTYPE svg PUBLIC "-//W3C//DTD SVG 1.1//EN" "http://www.w3.org/Graphics/SVG/1.1/DTD/svg11.dtd">
<svg version="1.1" id="Capa_1" xmlns="http://www.w3.org/2000/svg" xmlns:xlink="http://www.w3.org/1999/xlink" x="0px" y="0px"
	 width="110px" height="96px" viewBox="0 0 110 96" enable-background="new 0 0 110 96" xml:space="preserve">
<g>
	<g>
		<g>
			<g>
				<path fill="#7F83BE" d="M93.396,66.068c-1.597-1.663-3.523-2.552-5.565-2.552c-2.025,0-3.968,0.873-5.631,2.535l-5.203,5.186
					c-0.428-0.23-0.856-0.445-1.268-0.659c-0.593-0.296-1.152-0.576-1.63-0.873c-4.873-3.095-9.302-7.129-13.55-12.348
					c-2.058-2.601-3.441-4.791-4.445-7.014c1.35-1.235,2.601-2.519,3.82-3.754c0.461-0.461,0.922-0.938,1.383-1.399
					c3.457-3.457,3.457-7.936,0-11.393l-4.495-4.495c-0.51-0.51-1.037-1.037-1.531-1.564c-0.988-1.021-2.025-2.074-3.095-3.062
					c-1.597-1.581-3.507-2.42-5.515-2.42s-3.951,0.84-5.598,2.42c-0.016,0.016-0.016,0.016-0.033,0.033l-5.598,5.647
					c-2.107,2.107-3.309,4.676-3.573,7.656c-0.395,4.807,1.021,9.286,2.107,12.216c2.667,7.195,6.651,13.862,12.595,21.008
					c7.211,8.611,15.888,15.41,25.799,20.201c3.787,1.795,8.841,3.918,14.488,4.281c0.346,0.016,0.708,0.033,1.037,0.033
					c3.803,0,6.997-1.366,9.5-4.083c0.016-0.033,0.049-0.049,0.066-0.082c0.856-1.037,1.844-1.976,2.881-2.98
					c0.708-0.675,1.432-1.383,2.14-2.124c1.63-1.696,2.486-3.671,2.486-5.696c0-2.042-0.873-4.001-2.535-5.647L93.396,66.068z
					 M99.29,83.404C99.274,83.404,99.274,83.42,99.29,83.404c-0.642,0.691-1.301,1.317-2.009,2.009
					c-1.07,1.021-2.157,2.091-3.177,3.293c-1.663,1.778-3.622,2.618-6.19,2.618c-0.247,0-0.51,0-0.757-0.016
					c-4.89-0.313-9.434-2.223-12.842-3.853c-9.318-4.511-17.501-10.915-24.3-19.032c-5.614-6.767-9.368-13.023-11.854-19.74
					c-1.531-4.099-2.091-7.293-1.844-10.306c0.165-1.926,0.906-3.523,2.272-4.89l5.614-5.614c0.807-0.757,1.663-1.169,2.502-1.169
					c1.037,0,1.877,0.626,2.404,1.152c0.016,0.016,0.033,0.033,0.049,0.049c1.004,0.938,1.959,1.91,2.963,2.947
					c0.51,0.527,1.037,1.054,1.564,1.597l4.495,4.495c1.745,1.745,1.745,3.359,0,5.104c-0.477,0.477-0.938,0.955-1.416,1.416
					c-1.383,1.416-2.7,2.733-4.132,4.017c-0.033,0.033-0.066,0.049-0.082,0.082c-1.416,1.416-1.152,2.799-0.856,3.737
					c0.016,0.049,0.033,0.099,0.049,0.148c1.169,2.832,2.815,5.499,5.318,8.676l0.016,0.016c4.544,5.598,9.335,9.961,14.62,13.303
					c0.675,0.428,1.366,0.774,2.025,1.103c0.593,0.296,1.152,0.576,1.63,0.873c0.066,0.033,0.132,0.082,0.198,0.115
					c0.56,0.28,1.087,0.412,1.63,0.412c1.366,0,2.223-0.856,2.502-1.136l5.631-5.631c0.56-0.56,1.449-1.235,2.486-1.235
					c1.021,0,1.86,0.642,2.371,1.202c0.016,0.016,0.016,0.016,0.033,0.033l9.072,9.072C100.97,79.93,100.97,81.659,99.29,83.404z"/>
			</g>
			<g>
				<path fill="#7F83BE" d="M73.903,36.301c4.313,0.724,8.232,2.766,11.36,5.894c3.128,3.128,5.153,7.046,5.894,11.36
					c0.181,1.087,1.12,1.844,2.19,1.844c0.132,0,0.247-0.016,0.379-0.033c1.218-0.198,2.025-1.35,1.827-2.568
					c-0.889-5.219-3.359-9.977-7.129-13.747s-8.528-6.24-13.747-7.129c-1.218-0.198-2.354,0.609-2.568,1.811
					C71.895,34.935,72.685,36.103,73.903,36.301z"/>
			</g>
			<g>
				<path fill="#7F83BE" d="M109.663,52.156c-1.465-8.594-5.515-16.414-11.739-22.638c-6.223-6.223-14.044-10.273-22.638-11.739
					c-1.202-0.214-2.338,0.609-2.552,1.811c-0.198,1.218,0.609,2.354,1.827,2.568c7.672,1.301,14.669,4.939,20.234,10.487
					c5.565,5.565,9.187,12.562,10.487,20.234c0.181,1.087,1.12,1.844,2.19,1.844c0.132,0,0.247-0.016,0.379-0.033
					C109.053,54.51,109.877,53.357,109.663,52.156z"/>
			</g>
		</g>
	</g>
	<g>
		<g>
			<path fill="#EA595C" d="M19.304,38.248c-10.477,0-19-8.523-19-19s8.523-19,19-19s19,8.523,19,19S29.78,38.248,19.304,38.248z
				 M19.304,3.248c-8.822,0-16,7.178-16,16s7.178,16,16,16s16-7.178,16-16S28.126,3.248,19.304,3.248z"/>
		</g>
		<g>
			<g>
				<path fill="#7F83BE" d="M25.117,23.842h-1.651v2.902h-3.999v-2.902H13.49v-2.973l6.234-9.115h3.742v9.064h1.651V23.842z
					 M19.468,20.817v-1.743c0-0.328,0.012-0.771,0.036-1.328s0.043-0.849,0.057-0.876h-0.113c-0.232,0.526-0.496,1.019-0.79,1.476
					l-1.661,2.471H19.468z"/>
			</g>
		</g>
	</g>
</g>
</svg>
