<?xml version="1.0" encoding="utf-8"?>
<!-- Generator: Adobe Illustrator 17.0.0, SVG Export Plug-In . SVG Version: 6.00 Build 0)  -->
<!DOCTYPE svg PUBLIC "-//W3C//DTD SVG 1.1//EN" "http://www.w3.org/Graphics/SVG/1.1/DTD/svg11.dtd">
<svg version="1.1" id="Capa_1" xmlns="http://www.w3.org/2000/svg" xmlns:xlink="http://www.w3.org/1999/xlink" x="0px" y="0px"
	 width="512px" height="512px" viewBox="0 0 512 512" enable-background="new 0 0 512 512" xml:space="preserve">
<g>
	<g>
		<g>
			<path fill="#FFFFFF" d="M53.276,107.813C23.899,107.813,0,83.913,0,54.537S23.899,1.26,53.276,1.26s53.276,23.899,53.276,53.276
				S82.653,107.813,53.276,107.813z M53.276,15.833c-21.341,0-38.703,17.362-38.703,38.703S31.935,93.24,53.276,93.24
				s38.703-17.362,38.703-38.704S74.617,15.833,53.276,15.833z"/>
		</g>
		<g>
			<path fill="#FFFFFF" d="M53.277,510.74c-15.638,0-28.36-12.723-28.36-28.362V313.065c-11.124-8.695-17.654-21.963-17.654-36.241
				V155.122c0-25.371,20.642-46.012,46.014-46.012c16.343,0,30.306,8.842,41.501,26.28l0.405,0.632
				c3.986,6.229,14.574,22.775,29.985,31.119c6.772,3.667,14.614,5.526,23.307,5.525c5.268,0,10.565-0.678,15.746-2.014l0.406-0.103
				c2.43-0.602,4.899-0.907,7.34-0.907c12.273,0,22.472,7.444,25.983,18.964c4.337,14.24-3.717,29.355-17.954,33.695
				c-1.385,0.422-14.04,4.13-31.374,4.13c-18.149,0-34.689-3.972-49.161-11.806c-0.056-0.03-0.112-0.061-0.168-0.092v62.291
				c0,14.276-6.53,27.545-17.654,36.24v169.313C81.639,498.017,68.916,510.74,53.277,510.74z M53.277,123.683
				c-17.336,0-31.441,14.103-31.441,31.439v121.702c0,10.69,5.36,20.554,14.337,26.387l3.317,2.155v177.011
				c0,7.603,6.185,13.789,13.787,13.789c7.603,0,13.788-6.186,13.788-13.789V305.365l3.316-2.155
				c8.978-5.833,14.337-15.697,14.337-26.386v-89.692l11.541,8.3c3.307,2.379,6.719,4.524,10.14,6.377
				c12.316,6.667,26.522,10.048,42.222,10.048c15.483,0,26.655-3.353,27.123-3.496c6.553-1.998,10.259-8.954,8.263-15.508
				c-1.624-5.328-6.238-8.638-12.042-8.638c-1.261,0-2.552,0.161-3.838,0.48l-0.268,0.068c-6.368,1.643-12.89,2.476-19.385,2.476
				c-11.143,0-21.319-2.45-30.246-7.283c-18.719-10.135-30.781-28.983-35.322-36.079l-0.394-0.615
				C74.056,130.088,64.493,123.683,53.277,123.683z"/>
		</g>
	</g>
	<g>
		<g>
			<path fill="#FFFFFF" d="M458.724,107.813c-29.377,0-53.276-23.9-53.276-53.277S429.347,1.26,458.724,1.26S512,25.16,512,54.537
				S488.101,107.813,458.724,107.813z M458.724,15.833c-21.341,0-38.703,17.362-38.703,38.703s17.362,38.704,38.703,38.704
				s38.703-17.362,38.703-38.704S480.065,15.833,458.724,15.833z"/>
		</g>
		<g>
			<path fill="#FFFFFF" d="M458.723,510.74c-15.639,0-28.361-12.723-28.361-28.362V313.064
				c-11.125-8.695-17.655-21.964-17.655-36.24v-62.291c-0.055,0.03-0.11,0.06-0.165,0.09c-14.474,7.835-31.015,11.808-49.165,11.808
				c-17.333,0-29.988-3.707-31.374-4.13c-14.233-4.337-22.287-19.452-17.953-33.692c3.489-11.446,13.863-19.135,25.817-19.135
				c2.628,0,5.244,0.386,7.778,1.148c0.561,0.15,7.153,1.866,15.766,1.866c8.989,0,16.868-1.799,23.421-5.346
				c15.406-8.342,25.996-24.886,29.982-31.114l0.408-0.637c11.194-17.438,25.158-26.28,41.501-26.28
				c25.372,0,46.014,20.641,46.014,46.012v121.702c0,14.277-6.53,27.546-17.654,36.241v169.312
				C487.084,498.017,474.361,510.74,458.723,510.74z M427.28,187.132v89.692c0,10.689,5.36,20.552,14.339,26.386l3.316,2.155
				v177.012c0,7.603,6.185,13.789,13.788,13.789c7.603,0,13.788-6.186,13.788-13.789V305.366l3.316-2.155
				c8.978-5.833,14.337-15.697,14.337-26.387V155.122c0-17.335-14.104-31.439-31.441-31.439c-11.216,0-20.779,6.405-29.237,19.58
				l-0.398,0.62c-4.541,7.094-16.603,25.94-35.318,36.073c-8.706,4.714-18.921,7.104-30.359,7.104
				c-11.069,0-19.423-2.329-19.774-2.428l-0.139-0.041c-1.188-0.362-2.41-0.545-3.632-0.545c-5.498,0-10.271,3.539-11.877,8.808
				c-1.995,6.553,1.712,13.51,8.262,15.506c0.47,0.143,11.642,3.497,27.124,3.497c15.701,0,29.907-3.381,42.225-10.049
				c3.419-1.852,6.831-3.998,10.137-6.376L427.28,187.132z"/>
		</g>
	</g>
	<g>
		<path fill="#FFFFFF" d="M260.82,268.543H159.915c-12.28,0-22.27-9.991-22.27-22.271V235.6c0-2.241,0.918-4.427,2.519-5.996
			c1.563-1.542,3.656-2.4,5.876-2.4l0.16,0.001c0.617,0.013,1.74,0.035,2.419,0.035c17.431,0,30.209-3.738,31.609-4.165
			c14.665-4.466,22.963-20.037,18.496-34.709c-3.566-11.699-12.497-19.185-22.634-18.977c-0.856,0.02-5.218,0.398-6.185,0.514
			l-0.106,0.013c-4.928,0.596-11.062,1.338-16.763,1.338c-3.482,0-6.382-0.277-8.868-0.845c-3.839-0.878-6.522-4.243-6.522-8.184
			v-25.068c0-12.279,9.99-22.269,22.269-22.269h37.259c4.63,0,8.396,3.767,8.396,8.396v16.368h9.595v-16.368
			c0-4.63,3.766-8.396,8.396-8.396h37.259c5.943,0,11.533,2.318,15.743,6.528c4.209,4.21,6.527,9.8,6.527,15.742v109.114
			C283.09,258.553,273.1,268.543,260.82,268.543z M152.218,241.765v4.508c0,4.245,3.453,7.698,7.697,7.698H260.82
			c4.244,0,7.697-3.453,7.697-7.698V137.157c0-2.05-0.802-3.981-2.259-5.437c-1.457-1.457-3.388-2.259-5.438-2.259H229.74v14.561
			c0,5.626-4.578,10.203-10.204,10.203h-18.333c-5.626,0-10.204-4.577-10.204-10.203v-14.561h-31.082
			c-4.244,0-7.696,3.453-7.696,7.696v19.518c0.266,0.004,0.538,0.007,0.817,0.007c4.823,0,10.473-0.684,15.013-1.232l0.104-0.013
			c1.16-0.14,6.087-0.582,7.611-0.616c0.257-0.006,0.512-0.009,0.765-0.009c16.27,0,30.792,11.778,36.136,29.308
			c6.807,22.361-5.839,46.089-28.191,52.897C182.963,237.477,169.943,241.291,152.218,241.765z"/>
	</g>
</g>
</svg>
