<?xml version="1.0" encoding="utf-8"?>
<!-- Generator: Adobe Illustrator 17.0.0, SVG Export Plug-In . SVG Version: 6.00 Build 0)  -->
<!DOCTYPE svg PUBLIC "-//W3C//DTD SVG 1.1//EN" "http://www.w3.org/Graphics/SVG/1.1/DTD/svg11.dtd">
<svg version="1.1" id="Capa_1" xmlns="http://www.w3.org/2000/svg" xmlns:xlink="http://www.w3.org/1999/xlink" x="0px" y="0px"
	 width="122px" height="85px" viewBox="0 0 122 85" enable-background="new 0 0 122 85" xml:space="preserve">
<g>
	<g>
		<g>
			<g>
				<g>
					<path fill="#7F83BE" d="M115.047,28.833H38.453c-3.696,0-6.703,3.007-6.703,6.703V47.28c0,3.696,3.007,6.703,6.703,6.703
						h76.593c3.696,0,6.703-3.007,6.703-6.703V35.536C121.75,31.84,118.743,28.833,115.047,28.833z M53.608,50.759H38.453
						c-1.918,0-3.479-1.56-3.479-3.479V35.536c0-1.918,1.561-3.479,3.479-3.479h15.155V50.759z M118.526,47.28
						c0,1.918-1.561,3.479-3.479,3.479H56.832V32.057h58.214c1.918,0,3.479,1.561,3.479,3.479V47.28z"/>
				</g>
				<g>
					<path fill="#7F83BE" d="M41.033,48.179c0.89,0,1.612-0.722,1.612-1.612c0-1.008,0.82-1.827,1.827-1.827
						c1.008,0,1.827,0.82,1.827,1.827c0,0.89,0.722,1.612,1.612,1.612s1.612-0.722,1.612-1.612c0-1.328-0.516-2.536-1.356-3.438
						c0.841-0.903,1.356-2.112,1.356-3.44c0-2.785-2.266-5.052-5.052-5.052c-2.785,0-5.052,2.266-5.052,5.052
						c0,1.328,0.518,2.536,1.359,3.438c-0.842,0.903-1.359,2.112-1.359,3.44C39.421,47.458,40.142,48.179,41.033,48.179z
						 M44.472,37.861c1.008,0,1.827,0.82,1.827,1.827s-0.82,1.827-1.827,1.827c-1.008,0-1.827-0.82-1.827-1.827
						S43.465,37.861,44.472,37.861z"/>
				</g>
				<g>
					<path fill="#7F83BE" d="M94.343,36.357c-2.785,0-5.052,2.266-5.052,5.052c0,2.785,2.266,5.052,5.052,5.052
						s5.052-2.266,5.052-5.052C99.394,38.623,97.128,36.357,94.343,36.357z M94.343,43.235c-1.008,0-1.827-0.82-1.827-1.827
						c0-1.008,0.82-1.827,1.827-1.827s1.827,0.82,1.827,1.827C96.17,42.416,95.35,43.235,94.343,43.235z"/>
				</g>
				<g>
					<path fill="#7F83BE" d="M66.828,36.357c-2.785,0-5.052,2.266-5.052,5.052c0,2.785,2.266,5.052,5.052,5.052
						c2.785,0,5.052-2.266,5.052-5.052C71.879,38.623,69.613,36.357,66.828,36.357z M66.828,43.235c-1.008,0-1.827-0.82-1.827-1.827
						c0-1.008,0.82-1.827,1.827-1.827c1.008,0,1.827,0.82,1.827,1.827C68.655,42.416,67.835,43.235,66.828,43.235z"/>
				</g>
				<g>
					<path fill="#7F83BE" d="M108.1,36.357c-2.785,0-5.052,2.266-5.052,5.052c0,2.785,2.266,5.052,5.052,5.052
						s5.052-2.266,5.052-5.052C113.152,38.623,110.885,36.357,108.1,36.357z M108.1,43.235c-1.008,0-1.827-0.82-1.827-1.827
						c0-1.008,0.82-1.827,1.827-1.827s1.827,0.82,1.827,1.827C109.927,42.416,109.108,43.235,108.1,43.235z"/>
				</g>
				<g>
					<path fill="#7F83BE" d="M80.585,36.357c-2.785,0-5.052,2.266-5.052,5.052c0,2.785,2.266,5.052,5.052,5.052
						c2.785,0,5.052-2.266,5.052-5.052C85.637,38.623,83.371,36.357,80.585,36.357z M80.585,43.235c-1.008,0-1.827-0.82-1.827-1.827
						c0-1.008,0.82-1.827,1.827-1.827c1.008,0,1.827,0.82,1.827,1.827C82.412,42.416,81.593,43.235,80.585,43.235z"/>
				</g>
				<g>
					<path fill="#7F83BE" d="M115.047,59.572H38.453c-3.696,0-6.703,3.007-6.703,6.703v11.744c0,3.696,3.007,6.703,6.703,6.703
						h76.593c3.696,0,6.703-3.007,6.703-6.703V66.275C121.75,62.579,118.743,59.572,115.047,59.572z M53.608,81.498H38.453
						c-1.918,0-3.479-1.56-3.479-3.479V66.275c0-1.918,1.561-3.479,3.479-3.479h15.155V81.498z M118.526,78.019
						c0,1.918-1.561,3.479-3.479,3.479H56.832V62.797h58.214c1.918,0,3.479,1.561,3.479,3.479V78.019z"/>
				</g>
				<g>
					<path fill="#7F83BE" d="M66.828,67.096c-2.785,0-5.052,2.266-5.052,5.052s2.266,5.052,5.052,5.052s5.052-2.266,5.052-5.052
						S69.613,67.096,66.828,67.096z M66.828,73.974c-1.008,0-1.827-0.82-1.827-1.827s0.82-1.827,1.827-1.827s1.827,0.82,1.827,1.827
						S67.835,73.974,66.828,73.974z"/>
				</g>
				<g>
					<path fill="#7F83BE" d="M80.585,67.096c-2.785,0-5.052,2.266-5.052,5.052s2.266,5.052,5.052,5.052s5.052-2.266,5.052-5.052
						S83.37,67.096,80.585,67.096z M80.585,73.974c-1.008,0-1.827-0.82-1.827-1.827s0.82-1.827,1.827-1.827s1.827,0.82,1.827,1.827
						S81.593,73.974,80.585,73.974z"/>
				</g>
				<g>
					<path fill="#7F83BE" d="M94.342,67.096c-2.785,0-5.052,2.266-5.052,5.052s2.266,5.052,5.052,5.052
						c2.785,0,5.052-2.266,5.052-5.052S97.128,67.096,94.342,67.096z M94.342,73.974c-1.008,0-1.827-0.82-1.827-1.827
						s0.82-1.827,1.827-1.827c1.008,0,1.827,0.82,1.827,1.827S95.35,73.974,94.342,73.974z"/>
				</g>
				<g>
					<path fill="#7F83BE" d="M41.463,80.276h6.879c0.89,0,1.612-0.722,1.612-1.612v-5.725c0-0.89-0.722-1.612-1.612-1.612h-5.267
						V69.07c0-1.008,0.82-1.827,1.827-1.827s1.827,0.82,1.827,1.827c0,0.89,0.722,1.612,1.612,1.612c0.89,0,1.612-0.722,1.612-1.612
						c0-2.785-2.266-5.052-5.052-5.052s-5.052,2.266-5.052,5.052v9.594C39.85,79.554,40.572,80.276,41.463,80.276z M43.075,74.551
						h3.654v2.501h-3.654V74.551z"/>
				</g>
			</g>
		</g>
	</g>
	<g>
		<g>
			<path fill="#EA595C" d="M19.25,38.278c-10.477,0-19-8.523-19-19s8.523-19,19-19s19,8.523,19,19S29.727,38.278,19.25,38.278z
				 M19.25,3.278c-8.822,0-16,7.178-16,16s7.178,16,16,16s16-7.178,16-16S28.072,3.278,19.25,3.278z"/>
		</g>
		<g>
			<g>
				<path fill="#7F83BE" d="M22.648,26.773h-4.111v-7.936c0-0.964,0.021-1.845,0.062-2.645c-0.253,0.308-0.567,0.629-0.943,0.964
					l-1.702,1.404l-2.102-2.583l5.147-4.194h3.65V26.773z"/>
			</g>
		</g>
	</g>
</g>
</svg>
