<?xml version="1.0" encoding="utf-8"?>
<!-- Generator: Adobe Illustrator 21.1.0, SVG Export Plug-In . SVG Version: 6.00 Build 0)  -->
<svg version="1.1" id="Layer_1" xmlns="http://www.w3.org/2000/svg" xmlns:xlink="http://www.w3.org/1999/xlink" x="0px" y="0px"
	 viewBox="0 0 512 512" style="enable-background:new 0 0 512 512;" xml:space="preserve">
<style type="text/css">
	.st0{fill:#FFFFFF;}
</style>
<g>
	<path class="st0" d="M130.3,399.7c-9.9,0-17.9,8-17.9,17.9c0,9.9,8,18,17.9,18c9.9,0,18-8,18-18
		C148.2,407.7,140.2,399.7,130.3,399.7z"/>
	<path class="st0" d="M678.7,259.2L538.9,117.3H432.7V37.1c0-16.5-13.5-30-30-30H4c-16.5,0-30,13.5-30,30V48h-130
		c-5.5,0-10,4.5-10,10s4.5,10,10,10h130v87.1H-87c-5.5,0-10,4.5-10,10s4.5,10,10,10H-26v89.1H-93c-5.5,0-10,4.5-10,10s4.5,10,10,10
		H-26v87.1h-27.9c-5.5,0-10,4.5-10,10s4.5,10,10,10H-26v9.5c0,16.5,13.5,30,30,30h39.4C50,473,86.8,505.6,131,505.6
		s81-32.5,87.6-74.9h136.7l0,0.2l100.4,0.2c6.8,42.2,43.5,74.4,87.5,74.4c43.9,0,80.4-32.1,87.5-74l48,0.1V259.2z M-6,400.7V37.1
		c0-5.5,4.5-10,10-10h398.7c5.5,0,10,4.5,10,10v363.6c0,5.5-4.5,10-10,10H219.5c-3.2-46-41.7-82.5-88.5-82.5s-85.3,36.5-88.5,82.5H4
		C-1.6,410.7-6,406.2-6,400.7z M131,485.6c-37.9,0-68.7-30.8-68.7-68.7s30.8-68.7,68.7-68.7s68.7,30.8,68.7,68.7
		S168.9,485.6,131,485.6z M543.2,485.6c-37.9,0-68.7-30.8-68.7-68.7s30.8-68.7,68.7-68.7s68.7,30.8,68.7,68.7
		S581.1,485.6,543.2,485.6z M658.7,411.6l-26.9-0.1c-2.8-46.4-41.4-83.4-88.5-83.4c-47,0-85.5,36.7-88.5,82.9l-23.9-0.1
		c1.2-3.2,1.9-6.7,1.9-10.4V137.3h97.8l128.2,130.1V411.6z"/>
</g>
</svg>
