<?xml version="1.0" encoding="utf-8"?>
<!-- Generator: Adobe Illustrator 21.1.0, SVG Export Plug-In . SVG Version: 6.00 Build 0)  -->
<svg version="1.1" id="Layer_1" xmlns="http://www.w3.org/2000/svg" xmlns:xlink="http://www.w3.org/1999/xlink" x="0px" y="0px"
	 viewBox="0 0 512 512" style="enable-background:new 0 0 512 512;" xml:space="preserve">
<style type="text/css">
	.st0{fill:#FFFFFF;}
</style>
<g>
	<g>
		<path class="st0" d="M130.3,399.7c-9.9,0-17.9,8-17.9,17.9c0,9.9,8,18,17.9,18s18-8,18-18C148.2,407.7,140.2,399.7,130.3,399.7z"
			/>
	</g>
</g>
<g>
	<g>
		<path class="st0" d="M542.8,112.4l-106.2-0.1h-1.1V40.5c0-19.8-16.1-35.9-35.9-35.9H4.6c-19.8,0-35.9,16.1-35.9,35.9H-157
			c-9.9,0-18,8-18,18s8,18,18,18h125.7l0,71.8h-89.8c-9.9,0-17.9,8-17.9,17.9s8,18,17.9,18h89.8V256h-53.9c-9.9,0-18,8-18,17.9
			c0,9.9,8,18,18,18h53.9v71.8h-18c-9.9,0-18,8.1-18,18c0,9.9,8,18,18,18h18c0,19.8,16.1,35.9,35.9,35.9h37.7
			c8.3,41,44.5,71.8,88,71.8c43.5,0,79.7-30.9,88-71.8h181.3h55.7c8.3,41,44.5,71.8,88,71.8c43.5,0,79.7-30.9,88-71.8h55.3L687,256
			L542.8,112.4z M130.3,471.5c-29.7,0-53.8-24.1-53.8-53.9c0-29.7,24.1-53.9,53.8-53.9c29.7,0,53.9,24.2,53.9,53.9
			C184.2,447.3,160,471.5,130.3,471.5z M218.3,399.7c-8.3-41-44.5-71.8-88-71.8c-43.4,0-79.7,30.9-88,71.8H4.6l0-359.2h395l0,359.2
			H218.3z M543.3,471.5c-29.7,0-53.9-24.1-53.9-53.9c0-29.7,24.2-53.9,53.9-53.9c29.7,0,53.9,24.2,53.9,53.9
			C597.2,447.3,573,471.5,543.3,471.5z M650.8,399.7h-19.5c-8.3-41-44.5-71.8-88-71.8c-43.4,0-79.7,30.9-88,71.8h-19.8l0-251.4h1
			l91.4,0.1l123.1,122.6L650.8,399.7z"/>
	</g>
</g>
<g>
	<g>
		<path class="st0" d="M426.7,341.3c-5.9,0-10.7,4.8-10.7,10.7s4.8,10.7,10.7,10.7s10.7-4.8,10.7-10.7S432.5,341.3,426.7,341.3z"/>
	</g>
</g>
</svg>
