<?xml version="1.0" encoding="utf-8"?>
<!-- Generator: Adobe Illustrator 17.0.0, SVG Export Plug-In . SVG Version: 6.00 Build 0)  -->
<!DOCTYPE svg PUBLIC "-//W3C//DTD SVG 1.1//EN" "http://www.w3.org/Graphics/SVG/1.1/DTD/svg11.dtd">
<svg version="1.1" id="Capa_1" xmlns="http://www.w3.org/2000/svg" xmlns:xlink="http://www.w3.org/1999/xlink" x="0px" y="0px"
	 width="116px" height="99px" viewBox="0 0 116 99" enable-background="new 0 0 116 99" xml:space="preserve">
<g>
	<g>
		<g>
			<path fill="#7F83BE" d="M61.56,32.54c0.273,0.274,0.631,0.41,0.99,0.41c0.358,0,0.717-0.137,0.99-0.41
				c0.547-0.547,0.547-1.432,0-1.98l-1.81-1.81l1.81-1.81c0.547-0.547,0.547-1.432,0-1.98c-0.547-0.547-1.432-0.547-1.98,0
				l-1.81,1.81l-1.81-1.81c-0.547-0.547-1.432-0.547-1.98,0c-0.547,0.547-0.547,1.432,0,1.98l1.81,1.81l-1.81,1.81
				c-0.547,0.547-0.547,1.432,0,1.98c0.273,0.274,0.631,0.41,0.99,0.41c0.358,0,0.717-0.137,0.99-0.41l1.81-1.81L61.56,32.54z"/>
		</g>
		<g>
			<path fill="#7F83BE" d="M83.96,32.54c0.273,0.274,0.631,0.41,0.99,0.41s0.717-0.137,0.99-0.41l1.81-1.81l1.81,1.81
				c0.273,0.274,0.631,0.41,0.99,0.41c0.358,0,0.717-0.137,0.99-0.41c0.547-0.547,0.547-1.432,0-1.98l-1.81-1.81l1.81-1.81
				c0.547-0.547,0.547-1.432,0-1.98c-0.547-0.547-1.432-0.547-1.98,0l-1.81,1.81l-1.81-1.81c-0.547-0.547-1.432-0.547-1.98,0
				c-0.547,0.547-0.547,1.432,0,1.98l1.81,1.81l-1.81,1.81C83.413,31.108,83.413,31.994,83.96,32.54z"/>
		</g>
		<g>
			<path fill="#7F83BE" d="M53.16,56.34c0.273,0.274,0.631,0.41,0.99,0.41c0.358,0,0.717-0.137,0.99-0.41l1.81-1.81l1.81,1.81
				c0.273,0.274,0.631,0.41,0.99,0.41c0.358,0,0.717-0.137,0.99-0.41c0.547-0.547,0.547-1.432,0-1.98l-1.81-1.81l1.81-1.81
				c0.547-0.547,0.547-1.432,0-1.98s-1.432-0.547-1.98,0l-1.81,1.81l-1.81-1.81c-0.547-0.547-1.432-0.547-1.98,0
				c-0.547,0.547-0.547,1.432,0,1.98l1.81,1.81l-1.81,1.81C52.613,54.908,52.613,55.794,53.16,56.34z"/>
		</g>
		<g>
			<path fill="#7F83BE" d="M86.76,56.34c0.273,0.274,0.631,0.41,0.99,0.41c0.358,0,0.717-0.137,0.99-0.41l1.81-1.81l1.81,1.81
				c0.273,0.274,0.631,0.41,0.99,0.41s0.717-0.137,0.99-0.41c0.547-0.547,0.547-1.432,0-1.98l-1.81-1.81l1.81-1.81
				c0.547-0.547,0.547-1.432,0-1.98c-0.547-0.547-1.432-0.547-1.98,0l-1.81,1.81l-1.81-1.81c-0.547-0.547-1.432-0.547-1.98,0
				c-0.547,0.547-0.547,1.432,0,1.98l1.81,1.81l-1.81,1.81C86.213,54.908,86.213,55.794,86.76,56.34z"/>
		</g>
		<g>
			<path fill="#7F83BE" d="M110.85,46.95h-1.365c-1.816,0-3.525,0.462-5.018,1.274c-0.389-2.307-2.387-4.074-4.802-4.074H89.15v-2.8
				h5.48c5.47,0,9.92-4.451,9.92-9.92v-8.672c0-4.416-3.591-8.008-8.008-8.008H50.958c-4.417,0-8.008,3.592-8.008,8.008v8.672
				c0,5.47,4.451,9.92,9.92,9.92h5.48v2.8H47.835c-2.415,0-4.413,1.767-4.803,4.074c-1.492-0.812-3.202-1.274-5.016-1.274H36.65
				c-2.702,0-4.9,2.199-4.9,4.9c0,2.701,2.198,4.9,4.9,4.9h1.694c0.224,0,0.406,0.182,0.406,0.406v5.194l0.025,0.47
				c-0.004,0.083-0.025,0.161-0.025,0.245v3.912c0,9.029,7.344,16.373,16.373,16.373H69.55v3.525l-22.4,4.588v1.142
				c0,1.809,0.791,3.518,2.173,4.689c1.38,1.17,3.196,1.672,5.04,1.361l19.387-4.074l19.447,4.084
				c0.337,0.057,0.676,0.085,1.012,0.085c1.443,0,2.848-0.508,3.968-1.456c1.382-1.17,2.173-2.878,2.173-4.689v-1.142l-22.4-4.588
				V83.35h14.427c9.029,0,16.373-7.344,16.373-16.373V63.75v-0.685v-5.909c0-0.224,0.182-0.406,0.406-0.406h1.694
				c2.702,0,4.9-2.198,4.9-4.9S113.552,46.95,110.85,46.95z M45.75,31.43v-8.672c0-2.871,2.337-5.208,5.208-5.208h45.584
				c2.871,0,5.208,2.337,5.208,5.208v8.672c0,3.927-3.193,7.12-7.12,7.12H52.87C48.943,38.55,45.75,35.357,45.75,31.43z
				 M61.15,41.35h25.2v2.8h-25.2V41.35z M45.75,49.036c0-1.149,0.935-2.086,2.085-2.086h51.829c1.151,0,2.086,0.937,2.086,2.086
				v1.306c-0.069,0.074-0.127,0.154-0.195,0.23c-0.104,0.119-0.207,0.238-0.305,0.363c-0.125,0.154-0.241,0.314-0.354,0.475
				c-0.071,0.101-0.144,0.202-0.213,0.305c-0.127,0.193-0.245,0.391-0.36,0.591c-0.048,0.083-0.095,0.165-0.141,0.249
				c-0.12,0.224-0.228,0.454-0.33,0.686c-0.032,0.071-0.066,0.143-0.097,0.216c-0.101,0.244-0.19,0.493-0.273,0.743
				c-0.024,0.071-0.05,0.141-0.073,0.214c-0.076,0.251-0.139,0.504-0.196,0.76c-0.018,0.081-0.041,0.16-0.057,0.241
				c-0.05,0.258-0.087,0.518-0.119,0.78c-0.01,0.084-0.027,0.165-0.035,0.248c-0.032,0.344-0.052,0.693-0.052,1.044v0.664h-50.4
				v-0.665c0-0.351-0.02-0.7-0.053-1.044c-0.008-0.084-0.025-0.165-0.035-0.248c-0.032-0.262-0.069-0.524-0.119-0.78
				c-0.017-0.081-0.039-0.161-0.057-0.241c-0.057-0.256-0.12-0.511-0.196-0.76c-0.022-0.073-0.049-0.141-0.073-0.214
				c-0.083-0.251-0.171-0.5-0.273-0.743c-0.031-0.073-0.064-0.143-0.097-0.216c-0.102-0.232-0.211-0.461-0.33-0.686
				c-0.045-0.084-0.094-0.165-0.141-0.249c-0.113-0.2-0.232-0.398-0.36-0.591c-0.069-0.104-0.141-0.204-0.213-0.305
				c-0.115-0.161-0.231-0.319-0.354-0.475c-0.098-0.123-0.202-0.244-0.305-0.363c-0.066-0.076-0.126-0.155-0.195-0.23v-1.305H45.75z
				 M101.75,60.95h0.596c-1.105,1.7-5.914,7-9.969,7H55.123c-4.056,0-8.865-5.3-9.969-7h0.596h2.8h50.4H101.75z M38.344,53.95H36.65
				c-1.158,0-2.1-0.942-2.1-2.1s0.942-2.1,2.1-2.1h1.365c2.087,0,3.98,0.834,5.373,2.183c0.368,0.356,0.694,0.743,0.98,1.152
				c0.011,0.015,0.024,0.029,0.035,0.046c0.279,0.406,0.514,0.837,0.708,1.284c0.011,0.027,0.025,0.052,0.036,0.078
				c0.192,0.455,0.34,0.93,0.441,1.417c0.003,0.015,0.006,0.032,0.01,0.048c0.098,0.498,0.151,1.009,0.151,1.529v0.664h-2.085
				c-0.363,0-0.713,0.045-1.053,0.12c-0.09,0.02-0.171,0.056-0.259,0.081c-0.249,0.07-0.493,0.148-0.725,0.255
				c-0.025,0.011-0.053,0.014-0.078,0.027v-1.477C41.55,55.389,40.112,53.95,38.344,53.95z M97.362,93.71
				c-0.195,0.556-0.535,1.057-0.995,1.448c-0.75,0.637-1.747,0.907-2.653,0.759L73.75,91.719l-19.907,4.185
				c-0.976,0.161-1.961-0.112-2.712-0.748c-0.461-0.391-0.801-0.89-0.995-1.448L72.35,89.16v-5.81h2.8v5.809L97.362,93.71z
				 M105.95,66.977c0,7.484-6.09,13.573-13.573,13.573H77.95h-8.4H55.123c-7.483,0-13.573-6.089-13.573-13.573v-3.912
				c0-0.143,0.015-0.283,0.042-0.417l0.003-0.014c0.046-0.225,0.136-0.431,0.248-0.623c0.014-0.024,0.025-0.05,0.041-0.074
				c0.113-0.178,0.253-0.333,0.413-0.469c0.006-0.006,0.013-0.01,0.018-0.015c0.829,2.45,7.339,9.297,12.809,9.297h37.253
				c5.47,0,11.981-6.847,12.81-9.297c0.006,0.006,0.013,0.01,0.018,0.015c0.158,0.136,0.3,0.291,0.413,0.469
				c0.015,0.024,0.027,0.05,0.041,0.074c0.111,0.192,0.202,0.398,0.248,0.623l0.003,0.008c0.027,0.137,0.042,0.279,0.042,0.423
				V66.977z M110.85,53.95h-1.694c-1.768,0-3.206,1.439-3.206,3.206v1.477c-0.025-0.011-0.053-0.015-0.078-0.028
				c-0.231-0.106-0.476-0.185-0.725-0.255c-0.088-0.025-0.169-0.062-0.259-0.081c-0.34-0.073-0.69-0.119-1.053-0.119h-2.085v-0.665
				c0-0.519,0.053-1.03,0.153-1.527c0.003-0.015,0.006-0.032,0.01-0.048c0.101-0.487,0.249-0.96,0.441-1.417
				c0.011-0.027,0.025-0.052,0.036-0.078c0.195-0.448,0.43-0.878,0.708-1.284c0.011-0.015,0.024-0.031,0.035-0.046
				c0.286-0.409,0.612-0.797,0.98-1.152c1.392-1.348,3.286-2.183,5.372-2.183h1.365c1.158,0,2.1,0.942,2.1,2.1
				S112.008,53.95,110.85,53.95z"/>
		</g>
	</g>
	<g>
		<g>
			<path fill="#EA595C" d="M19.25,38.25c-10.477,0-19-8.523-19-19s8.523-19,19-19s19,8.523,19,19S29.727,38.25,19.25,38.25z
				 M19.25,3.25c-8.822,0-16,7.178-16,16s7.178,16,16,16s16-7.178,16-16S28.072,3.25,19.25,3.25z"/>
		</g>
		<g>
			<g>
				<path fill="#7F83BE" d="M19.906,16.82c0.861,0,1.639,0.2,2.333,0.6s1.234,0.965,1.62,1.697c0.386,0.731,0.579,1.576,0.579,2.533
					c0,1.675-0.504,2.959-1.512,3.855s-2.534,1.343-4.578,1.343c-1.75,0-3.178-0.27-4.286-0.81v-3.322
					c0.595,0.273,1.266,0.499,2.015,0.677s1.393,0.266,1.933,0.266c0.752,0,1.33-0.159,1.733-0.477s0.605-0.788,0.605-1.41
					c0-0.574-0.205-1.022-0.615-1.343s-1.032-0.482-1.866-0.482c-0.636,0-1.323,0.12-2.061,0.359l-1.487-0.738l0.564-7.916h8.551
					v3.374h-5.106l-0.185,1.979c0.533-0.103,0.913-0.159,1.138-0.169S19.715,16.82,19.906,16.82z"/>
			</g>
		</g>
	</g>
</g>
</svg>
