<?xml version="1.0" encoding="utf-8"?>
<!-- Generator: Adobe Illustrator 17.0.0, SVG Export Plug-In . SVG Version: 6.00 Build 0)  -->
<!DOCTYPE svg PUBLIC "-//W3C//DTD SVG 1.1//EN" "http://www.w3.org/Graphics/SVG/1.1/DTD/svg11.dtd">
<svg version="1.1" id="Capa_1" xmlns="http://www.w3.org/2000/svg" xmlns:xlink="http://www.w3.org/1999/xlink" x="0px" y="0px"
	 width="13px" height="13px" viewBox="0 0 13 13" enable-background="new 0 0 13 13" xml:space="preserve">
<g>
	<g>
		<g>
			<path fill="#E3B2FF" d="M12.709,10.274l-2.008-2.008c-0.4-0.398-1.062-0.386-1.476,0.028L8.214,9.305
				c-0.064-0.035-0.13-0.072-0.2-0.111C7.375,8.84,6.501,8.355,5.581,7.434C4.658,6.512,4.173,5.636,3.818,4.997
				C3.78,4.929,3.745,4.864,3.709,4.802l0.679-0.678L4.722,3.79c0.414-0.415,0.426-1.077,0.027-1.476L2.741,0.306
				C2.342-0.093,1.679-0.081,1.265,0.334L0.699,0.903l0.015,0.015C0.525,1.16,0.366,1.44,0.248,1.741
				C0.14,2.027,0.072,2.301,0.041,2.575C-0.224,4.772,0.78,6.781,3.506,9.507c3.767,3.767,6.804,3.483,6.935,3.469
				c0.285-0.034,0.559-0.102,0.836-0.21c0.298-0.117,0.577-0.275,0.819-0.464l0.012,0.011l0.573-0.561
				C13.095,11.336,13.107,10.674,12.709,10.274z"/>
		</g>
	</g>
</g>
</svg>
