<?xml version="1.0" encoding="utf-8"?>
<!-- Generator: Adobe Illustrator 17.0.0, SVG Export Plug-In . SVG Version: 6.00 Build 0)  -->
<!DOCTYPE svg PUBLIC "-//W3C//DTD SVG 1.1//EN" "http://www.w3.org/Graphics/SVG/1.1/DTD/svg11.dtd">
<svg version="1.1" id="Layer_1" xmlns="http://www.w3.org/2000/svg" xmlns:xlink="http://www.w3.org/1999/xlink" x="0px" y="0px"
	 width="13px" height="13px" viewBox="0 0 13 13" enable-background="new 0 0 13 13" xml:space="preserve">
<path fill="#E3B2FF" d="M12.793,2.351c-0.289,0.128-0.589,0.229-0.896,0.302c0.339-0.322,0.594-0.725,0.738-1.175l0,0
	c0.041-0.128-0.098-0.239-0.214-0.171l0,0c-0.428,0.254-0.889,0.444-1.37,0.566c-0.028,0.007-0.057,0.011-0.086,0.011
	c-0.088,0-0.173-0.033-0.24-0.092c-0.512-0.451-1.171-0.7-1.854-0.7c-0.296,0-0.595,0.046-0.888,0.137
	c-0.909,0.282-1.61,1.031-1.83,1.956C6.069,3.534,6.047,3.881,6.086,4.219C6.09,4.257,6.072,4.285,6.06,4.297
	C6.04,4.32,6.012,4.332,5.983,4.332c-0.003,0-0.007,0-0.01,0C3.984,4.147,2.19,3.189,0.922,1.633l0,0
	c-0.065-0.079-0.189-0.07-0.24,0.019l0,0c-0.248,0.426-0.38,0.913-0.38,1.409c0,0.76,0.305,1.476,0.835,1.998
	C0.915,5.006,0.699,4.923,0.498,4.811l0,0C0.402,4.758,0.282,4.827,0.281,4.938l0,0C0.267,6.066,0.928,7.071,1.918,7.523
	c-0.02,0-0.04,0.001-0.06,0.001c-0.157,0-0.316-0.015-0.472-0.045l0,0C1.276,7.458,1.185,7.562,1.219,7.667l0,0
	C1.54,8.671,2.404,9.41,3.437,9.578c-0.858,0.576-1.857,0.88-2.897,0.88l-0.324,0c-0.1,0-0.184,0.065-0.21,0.162
	c-0.025,0.095,0.021,0.196,0.106,0.245c1.172,0.682,2.508,1.042,3.865,1.042c1.188,0,2.299-0.236,3.303-0.701
	c0.92-0.426,1.733-1.036,2.417-1.811c0.637-0.722,1.135-1.556,1.48-2.479c0.329-0.879,0.503-1.817,0.503-2.713V4.161
	c0-0.144,0.065-0.279,0.178-0.371c0.431-0.35,0.806-0.761,1.114-1.223l0,0C13.056,2.445,12.927,2.292,12.793,2.351L12.793,2.351z"/>
</svg>
