<?xml version="1.0" encoding="utf-8"?>
<!-- Generator: Adobe Illustrator 17.0.0, SVG Export Plug-In . SVG Version: 6.00 Build 0)  -->
<!DOCTYPE svg PUBLIC "-//W3C//DTD SVG 1.1//EN" "http://www.w3.org/Graphics/SVG/1.1/DTD/svg11.dtd">
<svg version="1.1" id="Capa_1" xmlns="http://www.w3.org/2000/svg" xmlns:xlink="http://www.w3.org/1999/xlink" x="0px" y="0px"
	 width="88px" height="17px" viewBox="0 0 88 17" enable-background="new 0 0 88 17" xml:space="preserve">
<g>
	<path fill="#FF5959" d="M11.827,4.38H8.692c-0.183,0-0.345,0.12-0.399,0.294l-2.046,6.63l-0.015-0.049L4.535,16.71h3.4
		c0.18,0,0.339-0.114,0.396-0.284l3.891-11.495c0.044-0.127,0.023-0.267-0.055-0.377C12.088,4.445,11.961,4.38,11.827,4.38"/>
	<path fill="#FFFFFF" d="M23.692,6.33c-0.503-0.687-1.153-1.241-1.934-1.647c-0.784-0.407-1.708-0.614-2.75-0.614
		c-0.929,0-1.788,0.169-2.556,0.501c-0.767,0.333-1.437,0.794-1.992,1.374c-0.556,0.579-0.989,1.273-1.29,2.064
		c-0.298,0.786-0.45,1.643-0.45,2.549c0,0.935,0.148,1.807,0.438,2.591c0.293,0.791,0.715,1.483,1.255,2.053
		c0.544,0.577,1.215,1.026,1.995,1.335c0.771,0.308,1.646,0.464,2.6,0.464c1.38,0,2.578-0.321,3.561-0.956
		c0.998-0.643,1.744-1.714,2.217-3.18c0.041-0.127,0.019-0.266-0.059-0.374c-0.079-0.108-0.205-0.171-0.338-0.171h-2.78
		c-0.185,0-0.348,0.123-0.401,0.3c-0.076,0.26-0.304,0.525-0.682,0.786c-0.391,0.272-0.851,0.404-1.407,0.404
		c-0.773,0-1.363-0.192-1.755-0.573c-0.327-0.316-0.534-0.821-0.616-1.506h7.841c0.22,0,0.402-0.17,0.417-0.39
		c0.062-0.93-0.018-1.834-0.235-2.687C24.552,7.789,24.188,7.008,23.692,6.33 M16.783,8.894c0.017-0.072,0.037-0.145,0.059-0.222
		c0.065-0.228,0.182-0.448,0.348-0.657c0.161-0.204,0.384-0.378,0.663-0.522c0.272-0.139,0.632-0.21,1.066-0.21
		c0.645,0,1.121,0.163,1.414,0.486c0.244,0.268,0.436,0.645,0.574,1.124H16.783z"/>
	<path fill="#FFFFFF" d="M37.284,5.534c-0.354-0.463-0.841-0.829-1.448-1.087c-0.59-0.25-1.345-0.377-2.242-0.377
		c-0.726,0-1.446,0.166-2.136,0.496c-0.379,0.181-0.722,0.42-1.027,0.715V4.798c0-0.231-0.186-0.418-0.418-0.418h-3.001
		c-0.231,0-0.418,0.187-0.418,0.418v11.495c0,0.231,0.187,0.417,0.418,0.417h3.157c0.231,0,0.418-0.186,0.418-0.417v-6.026
		c0-1.073,0.166-1.837,0.495-2.272c0.304-0.404,0.805-0.601,1.534-0.601c0.608,0,1.009,0.165,1.225,0.506
		c0.253,0.397,0.38,1.036,0.38,1.9v6.493c0,0.231,0.187,0.417,0.418,0.417h3.157c0.23,0,0.418-0.186,0.418-0.417V9.223
		c0-0.737-0.067-1.422-0.198-2.034C37.877,6.546,37.631,5.989,37.284,5.534"/>
	<path fill="#FFFFFF" d="M51.96,0h-3.157c-0.231,0-0.418,0.187-0.418,0.418v4.711c-0.268-0.233-0.572-0.429-0.906-0.586
		c-0.668-0.314-1.382-0.473-2.123-0.473c-0.909,0-1.723,0.184-2.417,0.548c-0.688,0.359-1.269,0.843-1.727,1.437
		c-0.452,0.588-0.797,1.273-1.025,2.037c-0.226,0.753-0.341,1.545-0.341,2.354c0,0.838,0.114,1.654,0.34,2.429
		c0.227,0.786,0.571,1.492,1.02,2.1c0.459,0.621,1.052,1.118,1.758,1.48C43.673,16.815,44.5,17,45.423,17
		c0.814,0,1.557-0.152,2.207-0.45c0.335-0.152,0.638-0.353,0.911-0.603v0.346c0,0.231,0.186,0.417,0.417,0.417h3.002
		c0.231,0,0.417-0.186,0.417-0.417V0.418C52.377,0.187,52.191,0,51.96,0 M48.371,11.808c-0.079,0.396-0.212,0.752-0.394,1.058
		c-0.173,0.291-0.398,0.515-0.689,0.689c-0.281,0.167-0.646,0.253-1.087,0.253c-0.408,0-0.758-0.087-1.037-0.261
		c-0.298-0.183-0.539-0.419-0.738-0.719c-0.202-0.306-0.35-0.66-0.442-1.055c-0.097-0.412-0.145-0.828-0.145-1.239
		c0-0.443,0.046-0.872,0.135-1.278c0.085-0.387,0.223-0.735,0.413-1.034c0.177-0.282,0.417-0.511,0.713-0.684
		c0.289-0.169,0.66-0.255,1.102-0.255c0.438,0,0.8,0.084,1.072,0.249c0.289,0.177,0.519,0.399,0.699,0.682
		c0.186,0.289,0.32,0.629,0.398,1.012c0.083,0.409,0.126,0.842,0.126,1.284C48.497,10.956,48.454,11.393,48.371,11.808"/>
	<path fill="#FFFFFF" d="M64.892,6.33c-0.503-0.687-1.152-1.241-1.933-1.647c-0.784-0.407-1.708-0.614-2.751-0.614
		c-0.928,0-1.787,0.169-2.555,0.501c-0.768,0.333-1.438,0.795-1.992,1.374c-0.556,0.579-0.99,1.273-1.29,2.063
		c-0.298,0.786-0.45,1.644-0.45,2.55c0,0.935,0.148,1.807,0.438,2.591c0.292,0.79,0.714,1.482,1.255,2.053
		c0.545,0.577,1.215,1.026,1.994,1.335c0.772,0.308,1.647,0.464,2.6,0.464c1.38,0,2.578-0.321,3.562-0.956
		c0.998-0.643,1.743-1.714,2.217-3.18c0.041-0.127,0.019-0.266-0.059-0.374c-0.079-0.108-0.205-0.171-0.338-0.171h-2.78
		c-0.186,0-0.349,0.123-0.401,0.3c-0.076,0.26-0.306,0.525-0.682,0.786c-0.392,0.272-0.852,0.404-1.407,0.404
		c-0.774,0-1.364-0.192-1.755-0.573c-0.327-0.316-0.534-0.821-0.617-1.506h7.842c0.22,0,0.401-0.17,0.417-0.39
		c0.061-0.93-0.018-1.834-0.235-2.687C65.751,7.788,65.388,7.008,64.892,6.33 M57.983,8.894C58,8.822,58.02,8.748,58.042,8.671
		c0.067-0.228,0.183-0.448,0.348-0.657c0.162-0.204,0.386-0.379,0.664-0.522c0.272-0.139,0.631-0.21,1.066-0.21
		c0.644,0,1.12,0.164,1.414,0.486c0.244,0.268,0.436,0.645,0.573,1.124H57.983z"/>
	<path fill="#FFFFFF" d="M75.735,4.197c-0.289-0.085-0.561-0.128-0.806-0.128c-0.443,0-0.874,0.067-1.284,0.197
		c-0.405,0.13-0.791,0.315-1.147,0.55c-0.319,0.21-0.609,0.462-0.865,0.75V4.798c0-0.231-0.187-0.418-0.418-0.418h-3.002
		c-0.23,0-0.417,0.187-0.417,0.418v11.495c0,0.231,0.187,0.418,0.417,0.418h3.158c0.231,0,0.418-0.187,0.418-0.418v-5.181
		c0-0.484,0.049-0.938,0.144-1.35c0.09-0.388,0.243-0.728,0.452-1.015c0.206-0.281,0.471-0.496,0.813-0.66
		c0.459-0.221,1.09-0.296,1.842-0.217c0.192,0.021,0.36,0.046,0.496,0.073c0.123,0.023,0.25-0.007,0.347-0.086
		c0.097-0.08,0.153-0.199,0.153-0.324V4.598C76.035,4.413,75.912,4.249,75.735,4.197"/>
	<path fill="#FFFFFF" d="M87.564,11.049c-0.237-0.414-0.554-0.765-0.943-1.042c-0.372-0.268-0.801-0.485-1.275-0.646
		c-0.45-0.152-0.918-0.284-1.385-0.39c-0.448-0.104-0.888-0.202-1.322-0.291c-0.412-0.085-0.78-0.182-1.097-0.287
		c-0.282-0.094-0.507-0.213-0.672-0.354c-0.114-0.099-0.165-0.214-0.165-0.373c0-0.135,0.026-0.235,0.079-0.297
		c0.078-0.092,0.169-0.16,0.282-0.209c0.131-0.057,0.281-0.095,0.445-0.112c0.191-0.021,0.371-0.031,0.534-0.031
		c0.492,0,0.921,0.092,1.275,0.275c0.103,0.054,0.415,0.215,0.465,0.894C83.8,8.403,83.98,8.573,84.2,8.573h3.001
		c0.117,0,0.229-0.049,0.308-0.135c0.079-0.086,0.118-0.202,0.109-0.317c-0.065-0.778-0.27-1.438-0.612-1.961
		c-0.336-0.516-0.765-0.937-1.276-1.251c-0.499-0.305-1.071-0.526-1.702-0.654c-1.22-0.246-2.566-0.243-3.796-0.012
		c-0.635,0.119-1.218,0.33-1.732,0.628c-0.534,0.309-0.969,0.735-1.293,1.267c-0.328,0.539-0.495,1.225-0.495,2.04
		c0,0.579,0.125,1.081,0.37,1.492c0.238,0.401,0.557,0.737,0.948,1c0.372,0.25,0.8,0.455,1.273,0.608
		c0.446,0.143,0.91,0.27,1.387,0.377c1.099,0.232,1.965,0.466,2.574,0.694c0.674,0.254,0.674,0.561,0.674,0.677
		c0,0.193-0.039,0.342-0.122,0.456c-0.098,0.136-0.217,0.242-0.365,0.323c-0.162,0.091-0.348,0.159-0.551,0.202
		c-0.521,0.111-0.979,0.081-1.41-0.029c-0.239-0.061-0.451-0.156-0.632-0.283c-0.174-0.122-0.311-0.274-0.422-0.467
		c-0.105-0.182-0.155-0.4-0.155-0.669c0-0.232-0.187-0.418-0.418-0.418h-3.002c-0.113,0-0.222,0.046-0.3,0.128
		c-0.079,0.081-0.122,0.192-0.117,0.306c0.033,0.842,0.23,1.558,0.586,2.128c0.351,0.563,0.807,1.024,1.355,1.367
		c0.537,0.337,1.155,0.579,1.837,0.722c0.662,0.138,1.349,0.209,2.042,0.209c0.675,0,1.351-0.066,2.006-0.197
		c0.678-0.135,1.291-0.375,1.821-0.713c0.542-0.344,0.988-0.806,1.325-1.373c0.341-0.575,0.514-1.287,0.514-2.115
		C87.93,11.998,87.807,11.475,87.564,11.049"/>
	<path fill="#FFFFFF" d="M4.2,4.675C4.146,4.5,3.983,4.381,3.801,4.381H0.488c-0.135,0-0.262,0.064-0.34,0.175
		c-0.079,0.109-0.1,0.25-0.055,0.378l3.935,11.495c0.058,0.168,0.216,0.282,0.395,0.282h0.112l1.697-5.455L4.2,4.675z"/>
</g>
</svg>
